<?xml version="1.0" standalone="no"?>
<!DOCTYPE svg PUBLIC "-//W3C//DTD SVG 20010904//EN"
 "http://www.w3.org/TR/2001/REC-SVG-20010904/DTD/svg10.dtd">
<svg version="1.0" xmlns="http://www.w3.org/2000/svg"
 width="700.000000pt" height="700.000000pt" viewBox="0 0 700.000000 700.000000"
 preserveAspectRatio="xMidYMid meet">
<metadata>
Created by potrace 1.11, written by Peter Selinger 2001-2013
</metadata>
<g transform="translate(0.000000,700.000000) scale(0.100000,-0.100000)"
fill="#000000" stroke="none">
<path d="M2983 6975 c-544 -115 -994 -426 -1305 -900 -307 -468 -414 -1000
-333 -1656 l7 -56 -42 -6 c-56 -7 -89 -32 -122 -92 -35 -65 -53 -159 -51 -276
3 -270 66 -457 224 -664 64 -84 100 -150 168 -306 26 -60 55 -109 77 -130 32
-31 42 -34 106 -39 l71 -5 20 -60 c69 -217 140 -370 241 -525 115 -175 296
-384 444 -513 l52 -45 -74 -36 c-177 -85 -324 -203 -621 -497 l-190 -187 -155
-46 c-370 -108 -920 -312 -1240 -459 -42 -19 -98 -38 -126 -41 -27 -4 -68 -17
-90 -29 l-39 -23 -3 -192 -2 -192 1104 0 1104 0 -44 167 c-127 483 -137 526
-128 538 61 84 221 261 229 255 17 -14 344 259 370 310 l15 28 87 -58 c370
-245 755 -311 1128 -194 108 34 301 128 403 197 l82 55 15 -28 c27 -52 339
-313 367 -307 9 3 25 -7 38 -25 12 -17 63 -78 113 -136 l91 -105 -42 -161
c-23 -89 -64 -245 -91 -348 l-49 -188 1104 0 1104 0 -2 192 -3 192 -31 18
c-18 10 -63 25 -100 32 -38 7 -92 24 -119 38 -223 114 -918 372 -1270 473
l-130 37 -200 197 c-286 282 -439 404 -609 486 l-76 36 57 52 c224 200 443
479 554 706 24 47 66 154 95 236 l52 150 64 5 c95 7 116 28 184 180 64 145
108 223 159 286 55 68 138 212 169 295 50 133 75 376 52 510 -24 145 -91 239
-170 239 l-29 0 7 63 c3 34 11 103 16 152 14 135 12 404 -5 549 -40 345 -152
660 -333 936 -291 447 -681 739 -1172 879 -204 58 -236 61 -669 60 -377 0
-401 -1 -508 -24z m-260 -1150 c47 -8 136 -30 199 -49 159 -48 250 -57 578
-57 327 0 413 8 583 57 317 91 589 81 760 -28 147 -95 253 -241 315 -438 68
-215 92 -421 72 -629 l-12 -131 52 -80 c29 -44 51 -82 49 -84 -2 -2 -20 -6
-40 -10 -32 -6 -37 -3 -64 32 -38 50 -103 99 -163 122 -74 28 -181 38 -483 46
-393 9 -613 -11 -736 -68 -51 -24 -153 -119 -153 -143 0 -13 -28 -15 -173 -15
l-173 0 -37 49 c-67 91 -160 137 -327 163 -109 16 -744 16 -878 -1 -149 -19
-240 -64 -307 -153 -27 -35 -32 -38 -64 -32 -20 4 -37 8 -39 9 -7 6 29 66 61
102 36 41 37 53 23 243 -18 234 72 625 183 796 78 121 205 238 292 270 125 45
323 57 482 29z m288 -1348 c112 -26 183 -75 223 -154 21 -42 21 -183 0 -294
-39 -207 -112 -375 -203 -467 -115 -116 -219 -149 -505 -158 -567 -20 -686 92
-686 646 0 97 4 180 8 185 5 6 14 29 22 52 35 112 143 173 356 202 110 15 705
6 785 -12z m1737 12 c217 -23 324 -73 371 -174 11 -25 21 -54 21 -65 0 -11 5
-20 11 -20 17 0 5 -416 -15 -503 -46 -202 -133 -280 -351 -313 -170 -26 -506
-12 -621 26 -128 43 -230 133 -294 259 -98 195 -152 531 -101 629 52 100 145
147 326 162 140 11 545 11 653 -1z m-3384 -196 c2 -10 7 -34 11 -53 4 -19 9
-43 12 -53 3 -12 -11 -3 -36 22 -23 23 -53 46 -67 51 -28 11 -24 27 10 40 35
14 64 11 70 -7z m4353 -6 c11 -10 2 -20 -43 -50 l-56 -37 6 38 c13 72 15 75
49 68 18 -4 37 -12 44 -19z m-4477 -140 c-18 -141 -9 -327 19 -402 12 -33 31
-91 42 -128 33 -115 127 -282 207 -369 41 -44 48 -32 10 15 -60 74 -118 165
-160 253 -53 110 -61 198 -30 320 21 84 72 224 82 224 3 0 13 -29 23 -64 16
-62 16 -65 -3 -108 -47 -108 -63 -235 -36 -309 16 -45 69 -112 103 -130 14 -7
39 -33 55 -57 17 -24 44 -52 61 -62 28 -17 34 -33 87 -219 31 -110 55 -203 52
-206 -3 -3 -23 -5 -45 -5 -51 0 -81 32 -126 136 -61 142 -121 250 -175 318
-83 104 -164 268 -187 379 -39 184 -36 383 7 486 22 53 27 31 14 -72z m527 87
l52 -6 0 -187 c-2 -421 79 -582 320 -638 63 -15 120 -18 326 -18 281 1 330 8
444 62 94 45 182 131 233 229 75 143 138 378 138 515 l0 59 218 0 219 0 6 -99
c10 -151 67 -348 140 -485 43 -81 141 -177 219 -215 109 -53 163 -62 408 -68
317 -8 452 18 553 106 44 39 92 134 112 219 23 98 38 297 32 413 l-6 107 52 6
c29 4 63 10 76 13 l24 6 -7 -83 c-4 -45 -18 -142 -31 -216 -30 -161 -30 -164
-5 -164 11 0 20 -3 20 -6 0 -9 -58 -235 -105 -410 -171 -631 -250 -837 -423
-1099 -101 -153 -203 -277 -346 -420 -238 -237 -446 -367 -704 -437 -110 -30
-353 -30 -463 0 -376 102 -744 399 -1039 838 -181 270 -260 474 -435 1118 -47
175 -105 401 -105 410 0 3 9 6 20 6 25 0 25 8 -5 155 -14 66 -28 162 -32 214
l-6 94 24 -6 c13 -3 47 -9 76 -13z m4016 -59 c20 -67 14 -322 -10 -437 -29
-134 -111 -295 -209 -412 -38 -44 -92 -147 -154 -289 -48 -110 -74 -137 -132
-137 -36 0 -39 2 -32 23 4 12 30 103 58 202 49 173 53 182 97 229 53 56 72 75
133 134 24 23 52 62 62 87 23 62 15 169 -20 272 l-28 79 19 67 18 68 29 -73
c61 -158 80 -290 55 -383 -21 -79 -109 -233 -192 -337 -33 -42 -30 -66 3 -27
42 50 140 201 169 261 16 35 35 86 41 113 7 28 23 77 35 110 44 112 49 253 20
485 -6 42 -5 44 10 25 8 -11 21 -38 28 -60z m-4398 -39 c18 -33 18 -33 -18
-123 -19 -49 -42 -116 -50 -149 -8 -32 -18 -72 -23 -89 l-7 -30 -7 30 c-22 91
-4 285 36 384 15 39 18 41 34 26 9 -8 25 -31 35 -49z m4320 -84 c15 -70 18
-225 5 -277 l-7 -30 -7 30 c-26 112 -41 160 -71 233 -37 90 -36 108 3 162 l26
34 19 -43 c10 -23 25 -72 32 -109z m-4170 -401 l0 -108 38 -57 c38 -57 73
-146 57 -146 -11 0 -60 48 -60 59 0 6 -18 28 -40 49 -34 33 -43 49 -55 109
-17 79 -9 153 21 198 28 43 39 15 39 -104z m3972 82 c34 -78 9 -263 -37 -278
-10 -3 -30 -25 -44 -49 -23 -39 -56 -67 -56 -48 0 27 28 96 57 144 33 53 35
62 30 115 -5 61 10 153 25 153 5 0 16 -17 25 -37z m-3913 -233 c5 -18 -1 -13
-18 15 -19 30 -26 53 -25 90 l1 50 17 -65 c10 -36 21 -76 25 -90z m3831 33
c-9 -15 -14 -20 -11 -11 3 9 8 34 13 55 7 34 8 35 11 11 2 -15 -4 -40 -13 -55z"/>
<path d="M2585 4654 c-16 -2 -73 -14 -125 -27 l-95 -22 290 -6 c285 -5 409
-19 468 -51 10 -5 21 -7 24 -5 9 10 -123 67 -202 88 -78 20 -287 34 -360 23z"/>
<path d="M4123 4646 c-94 -18 -188 -50 -238 -81 -38 -23 -43 -35 -7 -16 10 5
53 17 97 27 62 13 147 19 370 23 l290 6 -95 24 c-119 29 -311 37 -417 17z"/>
<path d="M2380 4300 c-118 -15 -202 -31 -235 -47 -31 -16 -135 -112 -135 -125
0 -4 12 -3 26 2 35 14 44 13 44 -5 0 -9 10 -35 23 -58 l22 -42 5 80 5 80 43
23 c54 30 172 51 287 51 l90 0 -40 -20 c-89 -44 -132 -119 -122 -210 8 -62 37
-112 91 -151 l41 -31 -100 6 c-114 7 -187 26 -221 58 -31 29 -31 5 0 -26 38
-38 96 -48 281 -49 142 -1 186 3 267 22 54 12 117 22 140 23 l43 1 -45 9 c-40
8 -114 0 -170 -18 -8 -3 -5 2 7 11 29 21 69 91 78 134 12 58 -13 130 -61 179
-24 23 -40 43 -36 43 4 0 41 -9 82 -21 107 -29 203 -83 257 -143 l45 -51 -28
53 c-48 91 -161 167 -302 203 -90 23 -273 32 -382 19z m314 -84 c37 -16 76
-60 76 -87 0 -29 -11 -23 -72 36 -65 64 -67 77 -4 51z m-44 -118 c0 -6 -6 -5
-15 2 -8 7 -15 14 -15 16 0 2 7 1 15 -2 8 -4 15 -11 15 -16z m-155 -188 c3 -5
2 -10 -4 -10 -5 0 -13 5 -16 10 -3 6 -2 10 4 10 5 0 13 -4 16 -10z"/>
<path d="M4317 4299 c-180 -24 -330 -107 -394 -216 -34 -58 -25 -64 14 -10 50
68 192 140 321 162 l43 7 -44 -44 c-49 -50 -74 -122 -62 -180 9 -43 49 -113
78 -134 22 -16 22 -16 -8 -9 -88 20 -134 24 -175 16 l-45 -9 48 -1 c26 -1 89
-11 140 -23 77 -19 120 -22 262 -22 214 1 274 16 306 76 7 14 1 12 -27 -7 -49
-33 -91 -44 -204 -51 l-95 -7 41 31 c54 39 83 89 91 151 10 90 -32 164 -122
211 l-40 21 120 -5 c115 -5 197 -20 242 -44 45 -25 53 -41 54 -115 l1 -72 24
50 c13 28 25 54 27 58 1 5 15 3 31 -3 16 -6 31 -8 34 -6 7 8 -101 112 -134
129 -71 37 -392 65 -527 46z m193 -90 c43 -27 59 -47 60 -76 0 -27 -12 -30
-30 -8 -7 9 -19 14 -26 11 -8 -3 -11 0 -8 8 3 7 -11 27 -30 44 -31 27 -32 37
-6 41 3 1 21 -9 40 -20z m-50 -115 c0 -2 -9 0 -20 6 -11 6 -20 13 -20 16 0 2
9 0 20 -6 11 -6 20 -13 20 -16z m-150 -190 c0 -2 -7 -4 -15 -4 -8 0 -15 4 -15
10 0 5 7 7 15 4 8 -4 15 -8 15 -10z"/>
<path d="M3330 3756 c0 -33 -77 -359 -100 -421 -10 -27 -32 -87 -49 -133 -34
-92 -38 -144 -16 -219 15 -50 63 -110 115 -142 14 -9 41 -33 59 -53 41 -47 90
-64 140 -49 39 12 151 109 151 131 0 8 -13 2 -32 -17 -45 -42 -70 -53 -118
-53 -82 0 -165 68 -194 160 -31 94 -29 144 9 365 33 192 57 455 41 455 -3 0
-6 -11 -6 -24z m-51 -855 c21 -41 21 -41 1 -29 -32 20 -50 70 -49 135 l1 58
13 -61 c7 -34 23 -80 34 -103z"/>
<path d="M3681 3055 c-1 -49 2 -65 9 -55 12 18 12 78 0 105 -6 14 -9 -2 -9
-50z"/>
<path d="M3070 2597 c0 -3 -9 -30 -21 -59 -11 -29 -16 -48 -11 -43 14 15 44
97 37 103 -3 3 -5 2 -5 -1z"/>
<path d="M3432 2575 c-17 -37 -14 -45 4 -12 9 16 14 31 11 33 -2 2 -9 -7 -15
-21z"/>
<path d="M3551 2595 c0 -5 6 -21 14 -35 8 -14 14 -20 14 -15 0 6 -6 21 -14 35
-8 14 -14 21 -14 15z"/>
<path d="M3925 2581 c12 -39 35 -91 40 -91 5 0 -34 102 -42 110 -3 3 -2 -6 2
-19z"/>
<path d="M3175 2559 c-9 -17 -15 -33 -13 -35 3 -2 12 12 21 31 21 43 13 47 -8
4z"/>
<path d="M3817 2555 c9 -19 18 -33 21 -31 4 5 -26 66 -33 66 -3 0 3 -16 12
-35z"/>
<path d="M3293 2563 c-3 -10 -8 -22 -11 -27 -3 -5 0 -6 5 -3 11 7 25 47 17 47
-3 0 -7 -8 -11 -17z"/>
<path d="M2749 2543 c-5 -14 -9 -33 -7 -41 2 -9 8 3 14 26 13 47 9 56 -7 15z"/>
<path d="M4237 2549 c4 -13 8 -18 11 -10 2 7 -1 18 -6 23 -8 8 -9 4 -5 -13z"/>
<path d="M3700 2551 c0 -6 4 -13 10 -16 6 -3 7 1 4 9 -7 18 -14 21 -14 7z"/>
<path d="M4091 2543 c7 -12 15 -20 18 -17 3 2 -3 12 -13 22 -17 16 -18 16 -5
-5z"/>
<path d="M2895 2539 c-4 -6 -5 -12 -2 -15 2 -3 7 2 10 11 7 17 1 20 -8 4z"/>
<path d="M4251 2504 c0 -11 3 -14 6 -6 3 7 2 16 -1 19 -3 4 -6 -2 -5 -13z"/>
<path d="M2616 2484 c-4 -14 -5 -28 -3 -31 3 -2 8 8 11 23 4 14 5 28 3 31 -3
2 -8 -8 -11 -23z"/>
<path d="M4371 2500 c0 -8 4 -24 9 -35 5 -13 9 -14 9 -5 0 8 -4 24 -9 35 -5
13 -9 14 -9 5z"/>
<path d="M2506 2465 c-3 -9 -6 -22 -5 -28 0 -7 5 -1 10 12 5 13 8 26 5 28 -2
2 -6 -3 -10 -12z"/>
<path d="M4481 2475 c1 -19 18 -51 18 -35 0 8 -4 22 -9 30 -5 8 -9 11 -9 5z"/>
<path d="M2432 2390 c0 -14 2 -19 5 -12 2 6 2 18 0 25 -3 6 -5 1 -5 -13z"/>
<path d="M4562 2390 c0 -14 2 -19 5 -12 2 6 2 18 0 25 -3 6 -5 1 -5 -13z"/>
<path d="M2711 2378 c0 -9 -4 -25 -7 -35 -5 -17 -5 -17 6 0 6 10 9 25 7 35 -4
15 -5 15 -6 0z"/>
<path d="M4280 2374 c0 -10 5 -26 10 -34 8 -11 9 -7 4 15 -8 37 -14 45 -14 19z"/>
<path d="M3210 2345 c-36 -8 -100 -17 -143 -21 -50 -4 -76 -11 -74 -18 5 -16
115 -19 230 -7 86 10 108 9 188 -9 l90 -20 102 21 c95 19 111 20 233 8 128
-12 195 -7 149 11 -11 4 -77 18 -147 31 l-127 23 -102 -19 c-97 -18 -106 -18
-184 -2 -95 19 -125 20 -215 2z"/>
<path d="M2538 2320 c-11 -38 -10 -56 3 -43 6 6 9 23 7 39 l-3 29 -7 -25z"/>
<path d="M4451 2313 c-1 -18 4 -33 9 -33 12 0 12 17 0 45 -7 17 -9 15 -9 -12z"/>
<path d="M2400 2204 c0 -10 5 -26 10 -34 8 -11 9 -7 4 15 -8 37 -14 45 -14 19z"/>
<path d="M4591 2208 c0 -9 -4 -25 -7 -35 -5 -17 -5 -17 6 0 6 10 9 25 7 35 -4
15 -5 15 -6 0z"/>
<path d="M2752 2175 c0 -16 2 -22 5 -12 2 9 2 23 0 30 -3 6 -5 -1 -5 -18z"/>
<path d="M4242 2175 c0 -16 2 -22 5 -12 2 9 2 23 0 30 -3 6 -5 -1 -5 -18z"/>
<path d="M2503 2120 c0 -25 2 -35 4 -22 2 12 2 32 0 45 -2 12 -4 2 -4 -23z"/>
<path d="M4493 2120 c0 -25 2 -35 4 -22 2 12 2 32 0 45 -2 12 -4 2 -4 -23z"/>
<path d="M2630 2136 c0 -8 4 -17 9 -20 5 -4 7 3 4 14 -6 23 -13 26 -13 6z"/>
<path d="M4357 2131 c-4 -17 -3 -21 5 -13 5 5 8 16 6 23 -3 8 -7 3 -11 -10z"/>
<path d="M3336 2118 c47 -55 54 -57 155 -58 l95 0 34 35 c18 19 31 37 28 41
-4 3 -40 0 -82 -6 -57 -10 -93 -10 -151 -1 -100 15 -101 15 -79 -11z"/>
<path d="M2733 2005 c-3 -9 -3 -18 -1 -21 3 -3 8 4 11 16 6 23 -1 27 -10 5z"/>
<path d="M2852 1990 c0 -19 2 -27 5 -17 2 9 2 25 0 35 -3 9 -5 1 -5 -18z"/>
<path d="M4142 1990 c0 -19 2 -27 5 -17 2 9 2 25 0 35 -3 9 -5 1 -5 -18z"/>
<path d="M4257 1999 c4 -13 8 -18 11 -10 2 7 -1 18 -6 23 -8 8 -9 4 -5 -13z"/>
<path d="M2642 1970 c0 -14 2 -19 5 -12 2 6 2 18 0 25 -3 6 -5 1 -5 -13z"/>
<path d="M3341 1974 c0 -11 3 -14 6 -6 3 7 2 16 -1 19 -3 4 -6 -2 -5 -13z"/>
<path d="M3553 1978 c-20 -26 -26 -41 -15 -34 12 7 36 46 29 46 -3 0 -9 -6
-14 -12z"/>
<path d="M3651 1974 c0 -11 3 -14 6 -6 3 7 2 16 -1 19 -3 4 -6 -2 -5 -13z"/>
<path d="M4352 1970 c0 -14 2 -19 5 -12 2 6 2 18 0 25 -3 6 -5 1 -5 -13z"/>
<path d="M3442 1949 c6 -16 12 -28 14 -26 5 5 -13 57 -20 57 -3 0 0 -14 6 -31z"/>
<path d="M2942 1900 c0 -19 2 -27 5 -17 2 9 2 25 0 35 -3 9 -5 1 -5 -18z"/>
<path d="M4052 1900 c0 -19 2 -27 5 -17 2 9 2 25 0 35 -3 9 -5 1 -5 -18z"/>
<path d="M3561 1844 c0 -11 3 -14 6 -6 3 7 2 16 -1 19 -3 4 -6 -2 -5 -13z"/>
<path d="M2711 1830 c0 -8 4 -22 9 -30 12 -18 12 -2 0 25 -6 13 -9 15 -9 5z"/>
<path d="M3341 1824 c0 -11 3 -14 6 -6 3 7 2 16 -1 19 -3 4 -6 -2 -5 -13z"/>
<path d="M3651 1824 c0 -11 3 -14 6 -6 3 7 2 16 -1 19 -3 4 -6 -2 -5 -13z"/>
<path d="M4183 1805 c0 -22 2 -30 4 -17 2 12 2 30 0 40 -3 9 -5 -1 -4 -23z"/>
<path d="M4281 1833 c-1 -6 -4 -20 -7 -30 -5 -17 -5 -17 6 0 6 10 9 23 6 30
-3 9 -5 9 -5 0z"/>
<path d="M2812 1800 c0 -19 2 -27 5 -17 2 9 2 25 0 35 -3 9 -5 1 -5 -18z"/>
<path d="M3071 1804 c0 -11 3 -14 6 -6 3 7 2 16 -1 19 -3 4 -6 -2 -5 -13z"/>
<path d="M3921 1804 c0 -11 3 -14 6 -6 3 7 2 16 -1 19 -3 4 -6 -2 -5 -13z"/>
<path d="M3212 1780 c0 -14 2 -19 5 -12 2 6 2 18 0 25 -3 6 -5 1 -5 -13z"/>
<path d="M3782 1780 c0 -14 2 -19 5 -12 2 6 2 18 0 25 -3 6 -5 1 -5 -13z"/>
<path d="M2902 1700 c0 -14 2 -19 5 -12 2 6 2 18 0 25 -3 6 -5 1 -5 -13z"/>
<path d="M2999 1694 c-5 -15 -8 -29 -5 -31 2 -2 8 10 14 26 13 38 5 41 -9 5z"/>
<path d="M3271 1694 c-12 -27 -11 -28 4 -12 10 9 16 21 13 28 -2 7 -10 -1 -17
-16z"/>
<path d="M3382 1705 c0 -11 3 -29 8 -40 11 -25 11 1 0 35 -6 20 -8 21 -8 5z"/>
<path d="M3606 1689 c-8 -42 0 -50 9 -9 4 17 5 34 2 36 -2 3 -7 -10 -11 -27z"/>
<path d="M3710 1714 c0 -6 7 -19 16 -30 14 -18 14 -18 3 6 -14 31 -19 36 -19
24z"/>
<path d="M3992 1689 c6 -16 12 -28 14 -26 5 5 -13 57 -20 57 -3 0 0 -14 6 -31z"/>
<path d="M4092 1700 c0 -14 2 -19 5 -12 2 6 2 18 0 25 -3 6 -5 1 -5 -13z"/>
<path d="M3132 1680 c0 -19 2 -27 5 -17 2 9 2 25 0 35 -3 9 -5 1 -5 -18z"/>
<path d="M3862 1680 c0 -19 2 -27 5 -17 2 9 2 25 0 35 -3 9 -5 1 -5 -18z"/>
<path d="M3490 1635 c-7 -20 -10 -39 -7 -42 3 -3 10 12 16 33 14 49 7 56 -9 9z"/>
<path d="M3290 1585 c1 -6 7 -21 16 -35 l15 -25 -7 25 c-7 26 -24 52 -24 35z"/>
<path d="M3690 1549 c-6 -11 -10 -25 -7 -32 2 -6 9 3 15 21 12 36 8 42 -8 11z"/>
<path d="M3195 1540 c10 -11 20 -20 23 -20 3 0 -3 9 -13 20 -10 11 -20 20 -23
20 -3 0 3 -9 13 -20z"/>
<path d="M3418 1538 c12 -13 22 -30 22 -38 0 -7 3 -11 6 -7 11 11 -7 47 -29
58 l-22 12 23 -25z"/>
<path d="M3580 1545 c-6 -8 -10 -20 -7 -27 4 -8 6 -7 6 4 1 9 9 22 19 27 9 6
12 11 6 11 -6 0 -17 -7 -24 -15z"/>
<path d="M3794 1538 l-19 -23 23 19 c12 11 22 21 22 23 0 8 -8 2 -26 -19z"/>
<path d="M2985 895 c4 -27 15 -95 24 -150 16 -96 18 -100 43 -103 l26 -3 -45
148 c-25 81 -47 150 -50 153 -3 3 -2 -17 2 -45z"/>
<path d="M3991 764 c0 -11 3 -14 6 -6 3 7 2 16 -1 19 -3 4 -6 -2 -5 -13z"/>
<path d="M3971 696 c-13 -54 -13 -56 -2 -56 10 0 27 87 18 96 -2 3 -10 -15
-16 -40z"/>
</g>
</svg>
