<svg xmlns="http://www.w3.org/2000/svg" version="1.1" width="600px" height="600px" viewBox="0 0 200 200" style="overflow:hidden!important;"><defs id="SvgjsDefs34664"><radialGradient id="SvgjsRadialGradient34730" cx="100" cy="114" r="41" gradientUnits="userSpaceOnUse" class="svga-on-canvas-facehighlight-gradient-single-0"><stop id="SvgjsStop34731" stop-opacity="0.5" stop-color="#d5967b" offset="0" ></stop><stop id="SvgjsStop34732" stop-opacity="0" stop-color="#c67d5e" offset="0.9" ></stop></radialGradient><radialGradient id="SvgjsRadialGradient34734" cx="100" cy="54" r="37" gradientUnits="userSpaceOnUse" class="svga-on-canvas-facehighlight-gradient-single-1"><stop id="SvgjsStop34735" stop-opacity="0.5" stop-color="#d5967b" offset="0" ></stop><stop id="SvgjsStop34736" stop-opacity="0" stop-color="#c67d5e" offset="0.9" ></stop></radialGradient><linearGradient id="SvgjsLinearGradient34979" x1="100" y1="142" x2="100" y2="139" gradientUnits="userSpaceOnUse" class="svga-on-canvas-mouth-gradient-single-0"><stop id="SvgjsStop34980" stop-opacity="1" stop-color="#be7151" offset="0.1" ></stop><stop id="SvgjsStop34981" stop-opacity="1" stop-color="#b76744" offset="1" ></stop></linearGradient><radialGradient id="SvgjsRadialGradient35406" cx="125.379" cy="82.93" r="12.84" gradientTransform="matrix(-1.0592 4.000000e-004 -4.000000e-004 0.9318 206.5112 5.1767)" gradientUnits="userSpaceOnUse" class="svga-on-canvas-eyesback-gradient-left-0"><stop id="SvgjsStop35407" stop-opacity="1" stop-color="#ffffff" offset="0" ></stop><stop id="SvgjsStop35408" stop-opacity="1" stop-color="#fdfefe" offset="0.544" ></stop><stop id="SvgjsStop35409" stop-opacity="1" stop-color="#f6f8f9" offset="0.74" ></stop><stop id="SvgjsStop35410" stop-opacity="1" stop-color="#eaeff2" offset="0.879" ></stop><stop id="SvgjsStop35411" stop-opacity="1" stop-color="#d9e3e8" offset="0.992" ></stop><stop id="SvgjsStop35412" stop-opacity="1" stop-color="#d8e2e7" offset="1" ></stop></radialGradient><radialGradient id="SvgjsRadialGradient35414" cx="125.001" cy="82.93" r="12.841" gradientTransform="matrix(1.0592 4.000000e-004 4.000000e-004 0.9318 -6.5112 5.1767)" gradientUnits="userSpaceOnUse" class="svga-on-canvas-eyesback-gradient-right-0"><stop id="SvgjsStop35415" stop-opacity="1" stop-color="#ffffff" offset="0" ></stop><stop id="SvgjsStop35416" stop-opacity="1" stop-color="#fdfefe" offset="0.544" ></stop><stop id="SvgjsStop35417" stop-opacity="1" stop-color="#f6f8f9" offset="0.74" ></stop><stop id="SvgjsStop35418" stop-opacity="1" stop-color="#eaeff2" offset="0.879" ></stop><stop id="SvgjsStop35419" stop-opacity="1" stop-color="#d9e3e8" offset="0.992" ></stop><stop id="SvgjsStop35420" stop-opacity="1" stop-color="#d8e2e7" offset="1" ></stop></radialGradient><radialGradient id="SvgjsRadialGradient35422" cx="125.379" cy="82.93" r="12.84" gradientTransform="matrix(-1.0592 4.000000e-004 -4.000000e-004 0.9318 206.5112 5.1767)" gradientUnits="userSpaceOnUse" class="svga-on-canvas-eyesfront-gradient-left-0"><stop id="SvgjsStop35423" stop-opacity="1" stop-color="#ffffff" offset="0" ></stop><stop id="SvgjsStop35424" stop-opacity="1" stop-color="#fdfefe" offset="0.544" ></stop><stop id="SvgjsStop35425" stop-opacity="1" stop-color="#f6f8f9" offset="0.74" ></stop><stop id="SvgjsStop35426" stop-opacity="1" stop-color="#eaeff2" offset="0.879" ></stop><stop id="SvgjsStop35427" stop-opacity="1" stop-color="#d9e3e8" offset="0.992" ></stop><stop id="SvgjsStop35428" stop-opacity="1" stop-color="#d8e2e7" offset="1" ></stop></radialGradient><radialGradient id="SvgjsRadialGradient35432" cx="123.218" cy="81.096" fx="133.802" fy="77.197" r="17.898" gradientTransform="matrix(0.9998 0.0183 0.0166 -0.7038 -47.7588 136.6255)" gradientUnits="userSpaceOnUse" class="svga-on-canvas-eyesfront-gradient-left-3"><stop id="SvgjsStop35433" stop-opacity="1" stop-color="#b76744" offset="0" ></stop><stop id="SvgjsStop35434" stop-opacity="0.3" stop-color="#b76744" offset="0.7" ></stop><stop id="SvgjsStop35435" stop-opacity="0" stop-color="#c67d5e" offset="1" ></stop></radialGradient><radialGradient id="SvgjsRadialGradient35437" cx="79.496" cy="81.496" r="23.208" gradientTransform="matrix(1.0971 -0.0499 0.0576 0.9543 -20.1632 27.912)" gradientUnits="userSpaceOnUse" class="svga-on-canvas-eyesfront-gradient-left-4"><stop id="SvgjsStop35438" stop-opacity="0" stop-color="#000000" offset="0.9" ></stop><stop id="SvgjsStop35439" stop-opacity="0.2" stop-color="#000000" offset="1" ></stop></radialGradient><radialGradient id="SvgjsRadialGradient35443" cx="125.001" cy="82.93" r="12.841" gradientTransform="matrix(1.0592 4.000000e-004 4.000000e-004 0.9318 -6.5112 5.1767)" gradientUnits="userSpaceOnUse" class="svga-on-canvas-eyesfront-gradient-right-0"><stop id="SvgjsStop35444" stop-opacity="1" stop-color="#ffffff" offset="0" ></stop><stop id="SvgjsStop35445" stop-opacity="1" stop-color="#fdfefe" offset="0.544" ></stop><stop id="SvgjsStop35446" stop-opacity="1" stop-color="#f6f8f9" offset="0.74" ></stop><stop id="SvgjsStop35447" stop-opacity="1" stop-color="#eaeff2" offset="0.879" ></stop><stop id="SvgjsStop35448" stop-opacity="1" stop-color="#d9e3e8" offset="0.992" ></stop><stop id="SvgjsStop35449" stop-opacity="1" stop-color="#d8e2e7" offset="1" ></stop></radialGradient><radialGradient id="SvgjsRadialGradient35453" cx="122.818" cy="81.096" fx="133.402" fy="77.197" r="17.898" gradientTransform="matrix(-0.9998 0.0183 -0.0166 -0.7038 246.9601 136.6328)" gradientUnits="userSpaceOnUse" class="svga-on-canvas-eyesfront-gradient-right-3"><stop id="SvgjsStop35454" stop-opacity="1" stop-color="#b76744" offset="0" ></stop><stop id="SvgjsStop35455" stop-opacity="0.3" stop-color="#b76744" offset="0.7" ></stop><stop id="SvgjsStop35456" stop-opacity="0" stop-color="#c67d5e" offset="1" ></stop></radialGradient><radialGradient id="SvgjsRadialGradient35458" cx="79.859" cy="81.511" r="23.208" gradientTransform="matrix(-1.0971 -0.0499 -0.0576 0.9543 220.163 27.9157)" gradientUnits="userSpaceOnUse" class="svga-on-canvas-eyesfront-gradient-right-4"><stop id="SvgjsStop35459" stop-opacity="0" stop-color="#000000" offset="0.9" ></stop><stop id="SvgjsStop35460" stop-opacity="0.2" stop-color="#000000" offset="1" ></stop></radialGradient><radialGradient id="SvgjsRadialGradient35543" cx="-568.659" cy="-521.042" r="59.751" gradientTransform="matrix(0.096 -0.0248 0.0245 0.0961 141.2814 119.9893)" gradientUnits="userSpaceOnUse" class="svga-on-canvas-eyesiris-gradient-left-1"><stop id="SvgjsStop35544" stop-opacity="1" stop-color="#ffffff" offset="0" ></stop><stop id="SvgjsStop35545" stop-opacity="0" stop-color="#ffffff" offset="1" ></stop></radialGradient><radialGradient id="SvgjsRadialGradient35547" cx="-582.838" cy="-519.099" r="59.745" gradientTransform="matrix(0.0991 8.856319e-004 -0.0011 0.0991 131.1134 135.9855)" gradientUnits="userSpaceOnUse" class="svga-on-canvas-eyesiris-gradient-left-2"><stop id="SvgjsStop35548" stop-opacity="1" stop-color="#ffffff" offset="0" ></stop><stop id="SvgjsStop35549" stop-opacity="0" stop-color="#ffffff" offset="1" ></stop></radialGradient><linearGradient id="SvgjsLinearGradient35553" x1="122.67" y1="88.268" x2="123.606" y2="87.152" gradientTransform="matrix(1 0 0 1 -52 0)" gradientUnits="userSpaceOnUse" class="svga-on-canvas-eyesiris-gradient-left-5"><stop id="SvgjsStop35554" stop-opacity="1" stop-color="#ffffff" offset="0" ></stop><stop id="SvgjsStop35555" stop-opacity="0" stop-color="#ffffff" offset="1" ></stop></linearGradient><linearGradient id="SvgjsLinearGradient35557" x1="127.212" y1="82.296" x2="126.463" y2="83.189" gradientTransform="matrix(1 0 0 1 -52 0)" gradientUnits="userSpaceOnUse" class="svga-on-canvas-eyesiris-gradient-left-6"><stop id="SvgjsStop35558" stop-opacity="1" stop-color="#ffffff" offset="0" ></stop><stop id="SvgjsStop35559" stop-opacity="0" stop-color="#ffffff" offset="1" ></stop></linearGradient><linearGradient id="SvgjsLinearGradient35561" x1="129.636" y1="79.822" x2="127.91" y2="81.879" gradientTransform="matrix(1 0 0 1 -52 0)" gradientUnits="userSpaceOnUse" class="svga-on-canvas-eyesiris-gradient-left-7"><stop id="SvgjsStop35562" stop-opacity="1" stop-color="#ffffff" offset="0" ></stop><stop id="SvgjsStop35563" stop-opacity="0" stop-color="#ffffff" offset="1" ></stop></linearGradient><radialGradient id="SvgjsRadialGradient35566" cx="-568.654" cy="-521.042" r="59.752" gradientTransform="matrix(0.096 -0.0248 0.0245 0.0961 193.2804 119.9894)" gradientUnits="userSpaceOnUse" class="svga-on-canvas-eyesiris-gradient-right-1"><stop id="SvgjsStop35567" stop-opacity="1" stop-color="#ffffff" offset="0" ></stop><stop id="SvgjsStop35568" stop-opacity="0" stop-color="#ffffff" offset="1" ></stop></radialGradient><radialGradient id="SvgjsRadialGradient35570" cx="-582.833" cy="-519.102" r="59.747" gradientTransform="matrix(0.0991 8.856319e-004 -0.0011 0.0991 183.1126 135.9856)" gradientUnits="userSpaceOnUse" class="svga-on-canvas-eyesiris-gradient-right-2"><stop id="SvgjsStop35571" stop-opacity="1" stop-color="#ffffff" offset="0" ></stop><stop id="SvgjsStop35572" stop-opacity="0" stop-color="#ffffff" offset="1" ></stop></radialGradient><linearGradient id="SvgjsLinearGradient35576" x1="122.67" y1="88.268" x2="123.606" y2="87.152" gradientUnits="userSpaceOnUse" class="svga-on-canvas-eyesiris-gradient-right-5"><stop id="SvgjsStop35577" stop-opacity="1" stop-color="#ffffff" offset="0" ></stop><stop id="SvgjsStop35578" stop-opacity="0" stop-color="#ffffff" offset="1" ></stop></linearGradient><linearGradient id="SvgjsLinearGradient35580" x1="127.212" y1="82.296" x2="126.463" y2="83.189" gradientUnits="userSpaceOnUse" class="svga-on-canvas-eyesiris-gradient-right-6"><stop id="SvgjsStop35581" stop-opacity="1" stop-color="#ffffff" offset="0" ></stop><stop id="SvgjsStop35582" stop-opacity="0" stop-color="#ffffff" offset="1" ></stop></linearGradient><linearGradient id="SvgjsLinearGradient35584" x1="129.636" y1="79.822" x2="127.91" y2="81.879" gradientUnits="userSpaceOnUse" class="svga-on-canvas-eyesiris-gradient-right-7"><stop id="SvgjsStop35585" stop-opacity="1" stop-color="#ffffff" offset="0" ></stop><stop id="SvgjsStop35586" stop-opacity="0" stop-color="#ffffff" offset="1" ></stop></linearGradient><linearGradient id="SvgjsLinearGradient35592" x1="130" y1="69" x2="130" y2="109" gradientTransform="matrix(-1 0 0 1 200 0)" gradientUnits="userSpaceOnUse" class="svga-on-canvas-glasses-gradient-single-1"><stop id="SvgjsStop35593" stop-opacity="1" stop-color="#000000" offset="0" ></stop><stop id="SvgjsStop35594" stop-opacity="0.8" stop-color="#000000" offset="1" ></stop></linearGradient><linearGradient id="SvgjsLinearGradient35607" x1="100" y1="110" x2="100" y2="73" gradientUnits="userSpaceOnUse" class="svga-on-canvas-glasses-gradient-single-0"><stop id="SvgjsStop35608" stop-opacity="0.6" stop-color="#151124" offset="0" ></stop><stop id="SvgjsStop35609" stop-opacity="1" stop-color="#151124" offset="1" ></stop></linearGradient><linearGradient id="SvgjsLinearGradient35738" x1="100" y1="171" x2="100" y2="130" gradientUnits="userSpaceOnUse" class="svga-on-canvas-chinshadow-gradient-single-0"><stop id="SvgjsStop35739" stop-opacity="0.8" stop-color="#b76744" offset="0" ></stop><stop id="SvgjsStop35740" stop-opacity="1" stop-color="#98401b" offset="0.7" ></stop></linearGradient><radialGradient id="SvgjsRadialGradient35803" cx="100" cy="225" r="250" gradientUnits="userSpaceOnUse" class="svga-on-canvas-backs-gradient-single-1"><stop id="SvgjsStop35804" stop-opacity="0" stop-color="#c4c7f3" offset="0" ></stop><stop id="SvgjsStop35805" stop-opacity="1" stop-color="#a1a5e4" offset="1" ></stop></radialGradient></defs><g id="svga-group-wrapper"><g id="svga-group-backs-single"><path id="SvgjsPath35806" d="M225 225H-25V-25h250V225z" fill="#c4c7f3" stroke-width="none" opacity="1"></path><path id="SvgjsPath35807" d="M103-37.266L99.131 71.999 96.536-37.598 103-37.266zM73.203-36.265L91.025 71.904 79.65-36.835 73.203-36.265zM66.869-16.598l24.577 89.921L68.869-17.931 66.869-16.598zM26.203-29.931L87.817 74.773 32.243-32.257 26.203-29.931zM23.545-16.454l60.278 91.568L25.536-20.265 23.545-16.454zM-11.865-28.757l57.2 61.532L-6.7-32.658 -11.865-28.757zM-15.464-0.265l94.073 82.174 -89.74-88.174L-15.464-0.265zM-30.131 2.069l85.667 64.667 -85.11-67.506L-30.131 2.069zM-25.19 42.794l99.642 45.712 -96.509-51.375L-25.19 42.794zM-44.131 43.402L56.536 85.069 -44.797 39.735 -44.131 43.402zM-54.775 75.518L53.607 91.994l-109.599-19.45L-54.775 75.518zM-44.102 97.566l109.62 1.232 -109.063-7.68L-44.102 97.566zM-58.131 52.069l89 27.333 -89.667-31L-58.131 52.069zM79.65 236.833l11.375-108.739L73.203 236.263 79.65 236.833zM68.869 217.929l22.577-91.254 -24.577 89.921L68.869 217.929zM30.826 240.293l47.61-91.392 -53.65 89.065L30.826 240.293zM25.536 220.263l58.287-95.379 -60.278 91.568L25.536 220.263zM-11.212 239.563l67.27-86.188 -72.435 82.287L-11.212 239.563zM-11.131 206.263l89.74-88.174 -94.073 82.174L-11.131 206.263zM-29.574 200.769l85.11-67.506 -85.667 64.666L-29.574 200.769zM-22.058 162.867l96.509-51.376 -99.642 45.713L-22.058 162.867zM-44.797 160.263l101.333-45.334 -100.667 41.667L-44.797 160.263zM-55.992 127.454l109.599-19.449L-54.775 124.48 -55.992 127.454zM-58.797 151.597l89.667-31.001 -89 27.333L-58.797 151.597zM120.438-43.631L106.913 64.863l14.599-89.479L120.438-43.631zM141.813-31.87L113.32 73.685l34.767-103.968L141.813-31.87zM149.456-11.494L112.68 75.019 151.219-9.86 149.456-11.494zM187.892-19.824l-71.859 96.851 77.454-93.596L187.892-19.824zM192.61-6.919l-72.688 84.917 74.049-80.838L192.61-6.919zM226.479-19.459l-61.838 61.764 66.318-57.093L226.479-19.459zM226.59 12.723L123.991 85.534l105.924-66.199L226.59 12.723zM243.926 21.075l-94.745 53.14 94.846-50.248L243.926 21.075zM230.489 57.303L127.048 92.708l105.635-29.315L230.489 57.303zM252.527 63.484L145.283 92.157l106.004-25.158L252.527 63.484zM255.805 96.376l-109.623-0.937 112.19 2.214L255.805 96.376zM239.29 109.779l-108.899-9.73 108.426 16.185L239.29 109.779zM241.298 126.083l-67.52-9.087 66.28 12.603L241.298 126.083zM104.827 238.789l-0.426-109.627 -6.031 109.166L104.827 238.789zM114.202 220.376l-9.991-92.682 7.806 93.681L114.202 220.376zM162.61 237.612l-54.587-110.773 48.254 112.112L162.61 237.612zM167.971 224.657l-55.949-97.521L165.4 228.103 167.971 224.657zM198.084 217.32l-79.836-96.065 74.605 101.301L198.084 217.32zM212.936 217.344l-74.315-77.444 73.314 80.159L212.936 217.344zM214.521 176.351l-91.122-60.95 87.131 66.045L214.521 176.351zM233.319 178.757l-92.776-57.118 92.852 60.845L233.319 178.757zM248.926 148.738l-104.393-33.471 105.123 36.601L248.926 148.738zM248.518 172.422l-83.533-41.113 83.608 44.841L248.518 172.422z" fill="#a1a5e4" stroke-width="none" opacity="1"></path></g><g id="svga-group-humanwrap-move" transform="matrix(1,0,0,1,0,0)"><g id="svga-group-humanwrap" transform="matrix(1,0,0,1,0,0)"><g id="svga-group-hair-back-move" transform="matrix(1,0,0,1,0,0)"><g id="svga-group-hair-back" transform="matrix(1,0,0,1,0,0)"><path id="SvgjsPath34995" d="M100.5,100.5h-1v-1h1V100.5z" fill="#73625b" stroke-width="none" opacity="1" stroke="none"></path></g></g><g id="svga-group-humanbody-single"><path id="SvgjsPath34737" d="M195.417 199.778c-2.196-4.746-8.195-11.779-14.86-13.722 -8.239-2.403-26.837-5.308-33.733-6.923 -5.528-1.296-16.662-11.294-20.564-14.65 -0.7-0.6-1.273-1.839-1.287-2.76 -0.139-10.864 4.195-39.724 4.195-39.724H100 70.833c0 0 4.334 28.859 4.193 39.724 -0.011 0.921-0.587 2.16-1.285 2.76 -3.902 3.356-15.036 13.354-20.564 14.65 -6.897 1.615-25.495 4.619-33.733 7.022 -6.667 1.942-12.664 8.876-14.86 13.622 -3.708 8.008-4.584 22.5-4.584 35h100 100C200 222.278 199.123 207.786 195.417 199.778z" fill="#c67d5e" stroke-width="none" opacity="1" stroke="none"></path><path id="SvgjsPath34738" d="M159.156 184.058c24.342 3.542 34.586 8.708 37.794 50.721H200c0-12.5-0.877-26.992-4.583-35 -2.196-4.746-8.195-11.779-14.86-13.722 -8.239-2.403-26.837-5.308-33.733-6.923 -5.528-1.296-18.242-12.069-21.643-16.35 3.36 4.704 12.791 15.605 21.054 18.46C150.188 182.61 153.48 183.232 159.156 184.058zM53.766 181.244c8.263-2.854 17.693-13.756 21.054-18.46 -3.4 4.28-16.114 15.054-21.643 16.35 -6.896 1.615-25.494 4.619-33.733 7.022 -6.665 1.942-12.664 8.876-14.86 13.622 -3.706 8.008-4.583 22.5-4.583 35h3.05c3.188-41.744 13.475-47.183 37.794-50.721C46.52 183.232 49.813 182.61 53.766 181.244z" fill="#d5967b" stroke-width="none" opacity="1" stroke="none"></path><path id="SvgjsPath34739" d="M95.646 197.62c0 0-5.074-1.609-7.083-2.379 -10.449-4.009-44.395-6.607-44.395-6.607s35.754 1.419 43.644 2.779c-0.458-4.767-3.017-20.004-3.017-20.004s5.149 16.815 6.409 21.057C91.878 194.734 95.646 197.62 95.646 197.62zM106.445 196.278c-0.089 0.073-0.191 0.168-0.302 0.268C106.256 196.461 106.358 196.372 106.445 196.278zM95.646 197.62c0 0 2.893 2.992 4.347 3.03 1.91 0.051 4.828-2.899 6.151-4.104 -1.265 0.957-4.159 1.391-5.31 1.436C99.504 198.033 95.646 197.62 95.646 197.62zM116.664 190.101c-1.545 0.248-4.386 0.789-4.386 0.789l2.287-14.89c-0.646 3.071-4.474 16.211-8.12 20.278 1.91-1.616 6.158-2.391 8.324-2.704 10.236-1.484 10.232-1.483 41.062-4.94C155.831 188.634 126.76 188.479 116.664 190.101z" fill="#b76744" stroke-width="none" opacity="1" stroke="none"></path><path id="SvgjsPath34740" d="M195.417 199.778c-2.196-4.746-8.195-11.779-14.86-13.722 -8.239-2.403-26.837-5.308-33.733-6.923 -5.528-1.296-16.662-11.294-20.564-14.65 -0.7-0.6-1.273-1.839-1.287-2.76 -0.139-10.864 4.195-39.724 4.195-39.724H100 70.833c0 0 4.334 28.859 4.193 39.724 -0.011 0.921-0.587 2.16-1.285 2.76 -3.902 3.356-15.036 13.354-20.564 14.65 -6.897 1.615-25.495 4.619-33.733 7.022 -6.667 1.942-12.664 8.876-14.86 13.622 -3.708 8.008-4.584 22.5-4.584 35h100 100C200 222.278 199.123 207.786 195.417 199.778z" fill="none" stroke="#98401b" stroke-width="1.5" opacity="1"></path></g><g id="svga-group-chinshadow-single"><path id="SvgjsPath35737" d="M75.602 162.779c7.126 5.302 15.497 9.087 24.401 9.087 8.902 0 17.269-3.781 24.394-9.08 -0.104-0.358-0.17-0.718-0.175-1.053 -0.088-6.862 1.561-20.607 2.82-30.025 -15.654-1.97-38.431-1.97-54.084 0 1.26 9.419 2.908 23.163 2.819 30.024C75.773 162.063 75.707 162.42 75.602 162.779z" fill="url(#SvgjsLinearGradient35738)" opacity="1"></path></g><g id="svga-group-clothes-single"><path id="SvgjsPath35783" d="M42.77 235.757l1.323-60.852c0 0 10.194-2.487 16.635-6.313 17.496 21.953 69.451 17.333 78.336-0.62 1.489 0.525 2.721 1.197 4.262 1.713 5 3.386 9.213 4.494 9.213 4.494l0.935 61.685C139.188 236.052 42.77 235.757 42.77 235.757z" fill="#f5f4f5" stroke-width="none" opacity="1"></path><path id="SvgjsPath35784" d="M154.014 177.705c-4.236-0.719-7.611-1.697-9.452-3.544 -5.343 10.025-26.763 16.378-33.855 17.309 20.554-6.276 29.188-10.813 32.598-21.583 1.99 2.383 6.522 3.549 12.313 4.538L154.014 177.705zM52.67 174.381c1.454-0.312 2.18-1.234 3.623-1.593l-1.528-1.867c-3.114 2.234-8.971 3.305-15.9 4.424l0.188 3.738c3.956-0.79 7.817-1.788 11.429-3.323 7.483 8.485 19.168 12.659 31.06 14.387C66.624 186.562 58.07 180.511 52.67 174.381z" fill="#ffffff" stroke-width="none" opacity="1"></path><path id="SvgjsPath35785" d="M137.861 170.055c-5.929 11.361-50.74 24.595-76.009 0.866 -1.571 0.615-6.271 2.085-6.271 2.085 18.406 23.08 72.345 23.227 86.702-0.112C142.221 172.87 139.321 170.737 137.861 170.055z" fill="#dfdde2" stroke-width="none" opacity="1"></path><path id="SvgjsPath35786" d="M139.008 167.841c-10.087 18.575-62.578 21.204-78.239 0.625 -5.72 1.556-11.219 4.876-16.756 5.707l-1.243 61.584 110.703 0.107 -0.855-62.386c-3.369-0.707-6.501-2.737-9.254-3.894C141.842 168.945 140.55 168.37 139.008 167.841zM60.39 169.087c13.903 23.086 68.817 18.455 79.419 0.099 1.286 0.499 1.615 0.696 3.106 1.183 -10.982 21.208-65.306 27.967-87.525 1.147C55.546 171.476 58.823 169.629 60.39 169.087zM54.287 172.418c17.963 27.046 77.26 22.856 89.583-1.287 1.771 1.391 4.53 2.989 7.936 3.735l1.66 59.08 -110.377 0.016 1.904-58.299C47.777 174.264 52.247 173.232 54.287 172.418z" fill="#b8b6c9" stroke-width="none" opacity="1"></path><path id="SvgjsPath35787" d="M-4.529 235.566c-2.574-13.852-2.292-47.592 9.013-47.521 13.136-5.311 29.269-11.404 42.802-15.311 6.908-7.246 13.436-14.137 26.188-21.314 0.389 2.599 1.874 8.541 0.011 11.773 -1.355 2.352-5.783 5.576-9.554 8.368 -2.029 2.72-3.927 5.374-6.599 9.089 5.168 22.301 9.601 33.78 10.097 53.123 0 0-1.452 0.689 64.471 0.397 2.215-22.339 4.993-33.561 10.379-54.098 0 0-4.308-5.014-7.207-8.87 -2.054-1.997-8.36-7.532-8.84-8.651 -1.175-2.741-0.548-6.188 0.11-11.367 10.793 4.873 17 12.021 26.082 21.303 7.729 2.119 30.86 9.967 42.445 15.216 3.965-0.11 6.203 1.999 7.872 5.466 5.405 11.195 4.126 27.297 2.18 42.789C185.83 235.989 49.887 238.17-4.529 235.566z" fill="#000000" stroke-width="none" opacity="1" stroke="none"></path><path id="SvgjsPath35788" d="M73.875 154.081c0.16 1.07 0.304 2.085 0.411 3.041 -0.218 0.266-17.212 23.353-17.336 23.525C61.126 171.148 67.1 161.305 73.875 154.081zM126.053 154.081c-0.159 1.07-0.184 2.085-0.291 3.041 0.218 0.266 16.931 22.469 17.054 22.642C138.391 170.914 132.828 161.305 126.053 154.081zM165.008 185.154c-4.28 6.231-5.194 8.382-9.879 14.557 1.071 0 2.799 0.166 3.87 0.166C162.663 193.592 162.67 190.393 165.008 185.154zM169.394 230.379c3.793-8.9 6.934-16.711 10.739-25.624l-1.247-2.014C175.717 211.896 172.354 221.199 169.394 230.379zM41.048 199.877c1.071 0 2.799-0.166 3.871-0.166 -4.685-6.175-5.599-6.561-9.878-12.792C37.377 192.158 37.384 193.592 41.048 199.877zM21.161 202.741l-1.247 2.014c3.806 8.913 4.765 16.724 8.559 25.624C25.512 221.199 24.33 211.896 21.161 202.741z" fill="#000000" stroke-width="none" opacity="1" stroke="none"></path><path id="SvgjsPath35789" d="M65.638 169.283c1.181-1.646 5.237-7.272 8.601-12.561C75.227 162.179 73.413 165.416 65.638 169.283zM125.74 156.36c2.553 4.396 5.562 8.772 8.664 12.803C126 165.336 125.435 161.423 125.74 156.36z" fill="#000000" stroke-width="none" opacity="1" stroke="none"></path><path id="SvgjsPath35790" d="M126.318 151.359c0.008-0.061 0.017-0.118 0.023-0.174 18.093 9.999 28.576 25.02 40.747 36.217 -0.448 0.721-1.228 1.193-1.687 1.905C152.656 179.609 146.599 164.946 126.318 151.359zM71.736 152.022c-15.034 8.213-36.242 33.357-38.318 35.269 0.448 0.724 0.691 0.577 1.15 1.288C47.314 178.882 50.793 169.283 71.736 152.022zM194.869 187.704c-1-0.799-24.646-10.039-42.59-14.969 33.698 16.299 45.587 18.545 51.471 24.321C203.367 196.057 202.586 187.489 194.869 187.704zM47.458 172.555c-13.524 3.914-30.839 10.098-42.975 15.491 -5.364 0.106-9.208 7.93-10.031 16.084C1.914 187.317-1.773 198.62 47.458 172.555z" fill="#0f0f0f" stroke-width="none" opacity="1" stroke="none"></path><path id="SvgjsPath35791" d="M206.6 210.062c-0.34-8.635-3.055-23.103-11.691-22.46 -0.714-0.61-20.822-9.767-42.285-15.611 -7.353-7.455-16.515-17.598-26.371-20.957 -0.711 6.428-1.477 10.622 0.216 12.714 2.241 2.439 4.93 4.879 7.568 6.522 4.616 6.136 8.139 9.778 8.139 9.778 -5.43 20.703-8.815 31.314-10.973 53.688H68.798c-2.157-22.373-5.543-32.984-10.973-53.688 0 0 3.522-3.643 8.139-9.778 2.639-1.644 5.327-4.083 7.568-6.522 1.692-2.092 0.927-6.286 0.216-12.714 -9.856 3.359-19.019 13.502-26.371 20.957 -21.463 5.845-41.571 15.001-42.285 15.611 -8.637-0.643-11.352 13.825-11.691 22.46 -0.411 10.487 1.435 24.938 1.585 25.938h210.029C205.165 234.999 207.011 220.549 206.6 210.062zM72.984 163.194c-2.258 2.233-3.658 3.181-6.473 5.282 4.829-6.271 4.341-5.433 7.708-11.229C74.37 159.739 73.433 162.751 72.984 163.194zM-3.172 234.028c-1.082-12.844-2.916-24.41 0.43-36.992 1.281-4.827 2.484-8.095 7.455-8.509 1.067 5.538 8.132 28.724 14.298 44.533 -6.226-24.192-5.311-18.81-8.219-28.452 -0.964-3.235-1.854-6.486-2.979-9.672 -0.783-2.214-1.65-4.387-2.262-6.653l40.433-14.865c-0.279 0.283-12.895 13.434-13.199 13.804 1.847 3.021 7.816 7.222 10.845 11.758 -12.436 1.174-18.508 3.173-23 3.84 0.331 0.919 9.061 25.353 9.976 27.656 -1.479-7.917-4.816-20.297-8.637-27.211 1.41-0.179 18.077-2.492 23.393-3.477 -1.476-2.854-8.043-8.437-11.559-12.619 20.646-18.162 25.422-27.402 39.593-35.454 0.15 1.509 0.443 3.011 0.55 4.519 -15.795 23.533-17.649 23.567-17.649 23.567 4.585 17.81 10.532 35.824 10.532 54.073L-3.172 234.028zM127.016 163.194c-0.448-0.443-1.386-3.455-1.235-5.947 3.367 5.797 2.879 4.958 7.708 11.229C130.674 166.375 129.273 165.428 127.016 163.194zM203.172 234.028l-70-0.154c0-18.249 5.947-36.264 10.532-54.073 0 0-1.854-0.034-17.649-23.567 0.106-1.508 0.399-3.01 0.55-4.519 14.171 8.052 18.946 17.292 39.593 35.454 -3.516 4.183-10.083 9.766-11.559 12.619 5.315 0.984 21.982 3.298 23.393 3.477 -3.82 6.914-7.157 19.294-8.637 27.211 0.915-2.304 9.645-26.737 9.976-27.656 -4.492-0.667-10.564-2.666-23-3.84 3.028-4.536 8.998-8.736 10.845-11.758 -0.305-0.37-12.92-13.521-13.199-13.804 0.001 0 40.433 14.865 40.433 14.865 -0.611 2.267-1.479 4.439-2.262 6.653 -1.125 3.186-2.015 6.437-2.979 9.672 -2.908 9.643-1.993 4.26-8.219 28.452 6.166-15.81 13.23-38.995 14.298-44.533 4.971 0.414 6.174 3.682 7.455 8.509C206.088 209.618 204.254 221.185 203.172 234.028z" fill="#000000" stroke-width="none" opacity="1" stroke="none"></path></g><g id="svga-group-head" transform="matrix(1,0,0,1,0,0)"><g id="svga-group-ears-left-move" transform="matrix(1,0,0,1,0,0)"><g id="svga-group-ears-left" transform="matrix(1,0,0,1,0,0)"><path id="SvgjsPath34986" d="M47.001 83.231c-1.376-2.453-5.638-8.48-9.98-7.003 -2.749 0.935-3.293 3.993-3.735 6.693 -0.588 3.591 0.471 10.694 1.389 13.26 0.881 2.467 3.533 7.23 5.264 9.045 2.13 2.225 4.775 9.324 5.194 10.061 0.66 1.162 1.536 2.911 4.122 2.692 2.853-0.244 4.584-1.85 5.856-2.121C58.253 115.192 50.582 89.616 47.001 83.231z" fill="#c67d5e" stroke="#98401b" stroke-width="1.5" opacity="1"></path><path id="SvgjsPath34987" d="M44.197 98.104c-0.132-0.581 0.007-1.56 0.142-2.504 0.124-0.861 0.24-1.675 0.169-2.251 -0.267-2.154-1.773-6.249-2.757-8.467 -1.132-2.554-2.963-5.77-5.262-6.599 -0.95-0.343-1.575 0.067-1.938 0.484 -0.266 0.305-0.325 0.665-0.238 0.707 0.086 0.042 0.285-0.254 0.572-0.535 0.235-0.229 0.579-0.426 1.051-0.385 -0.19 1.073-1.167 6.883-0.744 10.845 0.333 3.115 1.593 5.442 1.79 5.791 0.029 0.367 0.077 0.726 0.148 1.075 0.929 4.547 4.971 9.717 6.378 11.409 0.259 0.313 0.531 0.497 0.598 0.423 0.066-0.076-0.094-0.387-0.353-0.7 -1.388-1.679-5.391-6.831-6.289-11.218 -0.952-4.656 2.318-11.556 3.048-13.017 0.371 0.685 0.687 1.344 0.93 1.893 0.19 0.431 0.402 0.936 0.619 1.479 -0.429 0.762-3.434 6.32-2.338 10.767 0.406 1.641 2.235 3.755 3.447 4.333 0.667 0.32 0.919 0.797 1.209 1.349 0.336 0.64 0.718 1.365 1.828 1.892 0.225 0.108 0.429 0.151 0.61 0.151 0.313 0 0.551-0.135 0.725-0.293 0.018 0.28 0.017 0.64 0.009 0.97 -0.012 0.431 0.042 0.783 0.137 0.791 0.094 0.008 0.196-0.332 0.207-0.76 0.016-0.526 0.013-1.177-0.072-1.488 -0.248-0.917-1.008-1.953-1.813-3.048C45.221 100.116 44.403 99.003 44.197 98.104zM36.95 94.073c-2.177-7.139 0.656-13.3 1.144-14.28 0.85 0.822 1.6 1.919 2.21 2.995C39.86 83.646 37.041 89.271 36.95 94.073zM46.341 104.515c-1.004-0.475-1.339-1.115-1.666-1.733 -0.293-0.559-0.598-1.136-1.369-1.505 -0.168-0.081-0.352-0.203-0.542-0.343 -2.486-6.263 0.272-9.001 0.963-9.562 0.211 0.766 0.369 1.468 0.439 2.031 0.063 0.517-0.052 1.339-0.167 2.134 -0.142 0.985-0.286 2.004-0.137 2.664 0.226 0.982 1.069 2.131 1.884 3.242 0.723 0.986 1.466 2.003 1.721 2.832C47.359 104.439 47.017 104.836 46.341 104.515z" fill="#98401b" stroke-width="none" opacity="1" stroke="none"></path></g></g><g id="svga-group-ears-right-move" transform="matrix(1,0,0,1,0,0)"><g id="svga-group-ears-right" transform="matrix(1,0,0,1,0,0)"><path id="SvgjsPath34988" d="M152.736 83.231c1.377-2.453 5.639-8.48 9.98-7.003 2.75 0.935 3.293 3.993 3.736 6.693 0.588 3.591-0.471 10.694-1.389 13.26 -0.881 2.467-3.533 7.23-5.266 9.045 -2.129 2.225-4.775 9.324-5.193 10.061 -0.658 1.162-1.535 2.911-4.121 2.692 -2.854-0.244-4.584-1.85-5.857-2.121C141.484 115.192 149.156 89.616 152.736 83.231z" fill="#c67d5e" stroke="#98401b" stroke-width="1.5" opacity="1"></path><path id="SvgjsPath34989" d="M153.727 101.196c-0.805 1.096-1.564 2.131-1.813 3.048 -0.086 0.311-0.088 0.962-0.072 1.488 0.012 0.428 0.113 0.768 0.207 0.76s0.148-0.36 0.137-0.791c-0.008-0.331-0.008-0.69 0.01-0.97 0.174 0.158 0.412 0.293 0.725 0.293 0.182 0 0.385-0.043 0.609-0.151 1.109-0.526 1.492-1.252 1.828-1.892 0.289-0.552 0.543-1.028 1.209-1.349 1.213-0.578 3.041-2.692 3.447-4.333 1.096-4.447-1.908-10.005-2.338-10.767 0.217-0.544 0.43-1.049 0.619-1.479 0.244-0.549 0.559-1.208 0.93-1.893 0.73 1.46 4 8.361 3.049 13.017 -0.896 4.387-4.9 9.539-6.289 11.218 -0.258 0.313-0.418 0.624-0.352 0.7 0.066 0.074 0.338-0.109 0.598-0.423 1.406-1.692 5.449-6.862 6.379-11.409 0.07-0.35 0.117-0.708 0.146-1.075 0.197-0.349 1.459-2.676 1.791-5.791 0.422-3.961-0.555-9.772-0.744-10.845 0.473-0.042 0.814 0.156 1.051 0.385 0.287 0.281 0.486 0.577 0.572 0.535 0.086-0.042 0.027-0.402-0.238-0.707 -0.363-0.417-0.988-0.827-1.938-0.484 -2.299 0.83-4.131 4.045-5.262 6.599 -0.984 2.218-2.49 6.313-2.758 8.467 -0.072 0.576 0.045 1.39 0.17 2.251 0.135 0.945 0.273 1.924 0.141 2.504C155.336 99.003 154.518 100.116 153.727 101.196zM159.434 82.787c0.611-1.075 1.361-2.173 2.211-2.995 0.488 0.98 3.32 7.141 1.145 14.28C162.697 89.271 159.879 83.646 159.434 82.787zM152.27 104.275c0.254-0.829 0.998-1.846 1.721-2.832 0.816-1.111 1.658-2.26 1.885-3.242 0.148-0.66 0.004-1.679-0.137-2.664 -0.115-0.795-0.23-1.617-0.166-2.134 0.068-0.563 0.227-1.266 0.438-2.031 0.691 0.561 3.449 3.299 0.965 9.562 -0.191 0.14-0.375 0.263-0.543 0.343 -0.771 0.369-1.074 0.946-1.369 1.505 -0.326 0.618-0.662 1.258-1.666 1.733C152.721 104.836 152.379 104.439 152.27 104.275z" fill="#98401b" stroke-width="none" opacity="1" stroke="none"></path></g></g><g id="svga-group-faceshape-wrap" transform="matrix(1,0,0,1,0,0)"><g id="svga-group-faceshape-single"><path id="SvgjsPath35734" d="M100.002 0.867C66.381 0.813 39.186 28.343 39.134 62.366c-0.008 5.403 0.669 10.645 1.953 15.641l0.004 0c0.011 0.054 8.713 39.241 14.519 51.175 6.073 12.487 23.814 32.685 44.392 32.685 20.582 0 38.32-20.197 44.392-32.685 5.805-11.935 14.507-51.122 14.519-51.175l0.005 0c1.283-4.997 1.961-10.238 1.952-15.641C160.819 28.343 133.623 0.813 100.002 0.867z" fill="#c67d5e" stroke-width="none" opacity="1" stroke="none"></path><path id="SvgjsPath35735" d="M120.754 4.512c21.441 9.489 36.411 31.135 36.45 56.363 0.008 5.403-0.669 10.645-1.953 15.641l-0.005 0c-0.011 0.054-8.713 39.24-14.519 51.177 -5.709 11.738-21.608 32.469-40.725 32.469s-35.016-20.73-40.725-32.469c-5.806-11.937-14.507-51.123-14.519-51.177l-0.004 0c-1.284-4.997-1.962-10.238-1.953-15.641 0.038-25.229 15.008-46.874 36.45-56.363 -23.386 8.55-40.076 31.208-40.117 57.854 -0.008 5.403 0.669 10.645 1.953 15.641l0.004 0c0.011 0.054 8.713 39.241 14.519 51.175 6.073 12.487 23.814 32.685 44.392 32.685 20.579 0 38.319-20.197 44.392-32.685 5.805-11.935 14.507-51.122 14.519-51.175l0.005 0c1.283-4.997 1.961-10.238 1.952-15.641C160.83 35.72 144.14 13.062 120.754 4.512z" fill="#be7151" stroke-width="none" opacity="1" stroke="none"></path><path id="SvgjsPath35736" d="M100.002 0.867C66.381 0.813 39.186 28.343 39.134 62.366c-0.008 5.403 0.669 10.645 1.953 15.641l0.004 0c0.011 0.054 8.713 39.241 14.519 51.175 6.073 12.487 23.814 32.685 44.392 32.685 20.582 0 38.32-20.197 44.392-32.685 5.805-11.935 14.507-51.122 14.519-51.175l0.005 0c1.283-4.997 1.961-10.238 1.952-15.641C160.819 28.343 133.623 0.813 100.002 0.867z" fill="none" stroke="#98401b" stroke-width="1.5" opacity="1"></path></g></g><g id="svga-group-mouth-single-move" transform="matrix(1,0,0,1,0,0)"><g id="svga-group-mouth-single" transform="matrix(1,0,0,1,0,0)"><path id="SvgjsPath34978" d="M99.825 142.068c-3.24 0-4.753-2.802-4.753-2.802s4.797 0.781 9.279-0.064C104.352 139.202 102.675 142.068 99.825 142.068z" fill="url(#SvgjsLinearGradient34979)" opacity="1"></path><path id="SvgjsPath34982" d="M95.211 139.349c-0.132-0.039-0.23-0.149-0.208-0.285 0.021-0.137 0.151-0.224 0.286-0.209 3.612 0.857 5.963 0.661 8.766-0.043 0.145-0.035 0.27 0.062 0.297 0.195s-0.063 0.256-0.193 0.296C101.098 140.207 98.142 140.241 95.211 139.349zM85.447 133.958c0.313-0.144 0.582-0.086 1.073-0.115 1.419-0.249 3.128-0.323 4.54-0.611 1.348-0.274 2.774-0.662 4.158-0.597 1.488 0.071 2.879 0.669 4.353 0.829 1.401 0.151 2.708-0.229 4.053-0.557 1.542-0.376 3.01-0.287 4.56 0.006 1.938 0.363 3.774 0.857 5.689 1.038 0.582 0.055 0.365 0.413 0.032 0.454 -1.713 0.205-3.431-0.068-5.194-0.249 -1.425-0.146-2.868-0.329-4.274 0.021 -1.518 0.379-3.437 0.822-4.605 0.808 -1.3-0.017-2.521-0.538-3.784-0.807 -1.551-0.327-3.091-0.02-4.647 0.143 -1.938 0.201-3.672 0.34-5.579 0.047C85.312 134.29 85.306 134.023 85.447 133.958z" fill="#98401b" stroke-width="none" opacity="1" stroke="none"></path></g></g><g id="svga-group-eyes-left-move" transform="matrix(1,0,0,1,0,0)"><g id="svga-group-eyes-left" transform="matrix(1,0,0,1,0,0)"><g id="svga-group-eyesback-left"><path id="SvgjsPath35405" d="M83.071 89.125c-3.293-0.784-4.969 1.059-9.809 1.166 -8.057 0.177-9.938-0.618-11.199-2.638 -0.523-0.837-1.023-1.928-1.264-2.601l-0.1-4.149c1.328-3.949 19.541-4.352 25.9 1.784 0.287 0.666 0.433 1.287 0.465 1.867 -0.19 0.958-0.512 1.878-0.947 2.749C85.411 88.113 84.355 88.729 83.071 89.125z" fill="url(#SvgjsRadialGradient35406)" opacity="1"></path></g><g id="svga-group-eyesiriswrapper-left" transform="matrix(1,0,0,1,0.25,0.25)"><g id="svga-group-eyesiriscontrol-left" transform="matrix(1,0,0,1,0,0)"><g id="svga-group-eyesiris-left" transform="matrix(1,0,0,1,0,0)"><path id="SvgjsPath35541" d="M80 84c0 3.313-2.687 6-6 6 -3.313 0-6-2.687-6-6l0 0c0-3.314 2.687-6 6-6C77.313 77.999 80 80.686 80 84L80 84z" fill="#000000" stroke-width="none" opacity="1" stroke="none"></path><path id="SvgjsPath35542" d="M73.328 78.066c-0.023 0.003-0.047 0.006-0.071 0.009 0.029 0.135 0.057 0.271 0.085 0.406C73.336 78.344 73.333 78.204 73.328 78.066zM73.341 78.48c0.07 1.972 0.185 3.729 0.517 4.364C74.033 82.148 73.735 80.414 73.341 78.48zM73.859 82.845c-0.043 0.167-0.108 0.281-0.208 0.319 -0.1 0.038-0.226-0.006-0.368-0.103 0.041 0.167 0.037 0.297-0.036 0.378 -0.072 0.081-0.201 0.101-0.373 0.078 0.113 0.13 0.171 0.249 0.146 0.353 -0.027 0.104-0.134 0.182-0.293 0.242 0.159 0.063 0.266 0.141 0.291 0.245 0.025 0.104-0.033 0.223-0.145 0.352 0.17-0.021 0.301 0.001 0.371 0.082 0.071 0.081 0.075 0.212 0.035 0.379 0.141-0.097 0.265-0.139 0.365-0.1 0.101 0.038 0.166 0.152 0.206 0.32 0.081-0.152 0.171-0.249 0.28-0.26 0.104-0.014 0.216 0.059 0.329 0.188 0.001-0.172 0.037-0.299 0.127-0.36 0.088-0.061 0.219-0.049 0.379 0.013 -0.078-0.152-0.105-0.281-0.055-0.377 0.05-0.095 0.173-0.146 0.344-0.166 -0.141-0.099-0.227-0.2-0.225-0.308 0-0.108 0.084-0.209 0.227-0.306 -0.17-0.021-0.291-0.072-0.342-0.167 -0.049-0.095-0.022-0.225 0.058-0.377 -0.162 0.06-0.292 0.072-0.38 0.011 -0.089-0.061-0.125-0.188-0.125-0.36 -0.112 0.128-0.224 0.199-0.33 0.185C74.029 83.092 73.938 82.998 73.859 82.845zM74.466 82.92c0.479-0.535 1.021-2.209 1.57-4.104C75.182 80.593 74.467 82.202 74.466 82.92zM76.035 78.816c0.06-0.122 0.121-0.246 0.178-0.37 -0.021-0.007-0.042-0.017-0.063-0.026C76.112 78.553 76.074 78.686 76.035 78.816zM74.972 83.27c0.672-0.252 1.931-1.483 3.297-2.905C76.688 81.541 75.306 82.634 74.972 83.27zM78.269 80.365c0.1-0.075 0.203-0.15 0.305-0.225 -0.014-0.018-0.03-0.033-0.042-0.049C78.445 80.181 78.358 80.274 78.269 80.365zM75.254 83.814c0.713 0.088 2.4-0.417 4.272-1.041C77.578 83.081 75.848 83.406 75.254 83.814zM79.526 82.774c0.11-0.016 0.225-0.034 0.337-0.052 -0.004-0.019-0.009-0.038-0.014-0.057C79.742 82.701 79.632 82.738 79.526 82.774zM75.253 84.427c0.59 0.412 2.318 0.747 4.262 1.063C77.65 84.857 75.967 84.342 75.253 84.427zM79.516 85.49c0.095 0.033 0.191 0.067 0.285 0.098 0.005-0.017 0.009-0.033 0.012-0.05C79.716 85.523 79.615 85.507 79.516 85.49zM74.965 84.97c0.333 0.637 1.708 1.738 3.282 2.924C76.888 86.464 75.638 85.226 74.965 84.97zM78.248 87.892c0.059 0.062 0.12 0.126 0.179 0.189 0.01-0.012 0.019-0.021 0.03-0.032C78.387 87.997 78.315 87.944 78.248 87.892zM74.46 85.317c-0.003 0.719 0.703 2.331 1.547 4.113C75.468 87.533 74.937 85.855 74.46 85.317zM76.007 89.431c0.021 0.075 0.043 0.152 0.063 0.229 0.015-0.006 0.025-0.01 0.039-0.014C76.076 89.574 76.041 89.5 76.007 89.431zM73.851 85.389c-0.336 0.637-0.461 2.39-0.542 4.361C73.713 87.82 74.022 86.087 73.851 85.389zM73.309 89.75c-0.017 0.075-0.031 0.151-0.047 0.228 0.014 0.003 0.025 0.003 0.039 0.005C73.303 89.906 73.307 89.826 73.309 89.75zM73.28 85.169c-0.596 0.407-1.521 1.904-2.508 3.61C72.026 87.259 73.106 85.867 73.28 85.169zM70.772 88.779c-0.053 0.063-0.108 0.13-0.162 0.193 0.013 0.008 0.024 0.014 0.038 0.024C70.688 88.924 70.731 88.851 70.772 88.779zM72.875 84.71c-0.716 0.083-2.231 0.978-3.898 2.029C70.795 85.977 72.395 85.248 72.875 84.71zM68.976 86.741c-0.086 0.036-0.174 0.072-0.263 0.11 0.006 0.013 0.015 0.027 0.023 0.04C68.817 86.842 68.897 86.791 68.976 86.741zM72.728 84.113c-0.671-0.257-2.429-0.168-4.395-0.011C70.297 84.27 72.055 84.367 72.728 84.113zM68.333 84.102c-0.107-0.01-0.217-0.02-0.323-0.029 0 0.019-0.002 0.038 0 0.056C68.119 84.119 68.228 84.11 68.333 84.102zM72.875 83.519c-0.473-0.539-2.069-1.277-3.881-2.051C70.653 82.528 72.163 83.432 72.875 83.519zM68.994 81.468c-0.104-0.067-0.209-0.134-0.315-0.201 -0.009 0.019-0.019 0.038-0.029 0.055C68.766 81.371 68.882 81.419 68.994 81.468zM73.284 83.061c-0.169-0.698-1.241-2.094-2.485-3.623C71.775 81.15 72.692 82.651 73.284 83.061zM70.799 79.438c-0.067-0.115-0.132-0.232-0.199-0.349 -0.019 0.013-0.039 0.026-0.056 0.039C70.628 79.231 70.716 79.335 70.799 79.438z" fill="url(#SvgjsRadialGradient35543)" opacity="0.7"></path><path id="SvgjsPath35546" d="M74.886 78.086c-0.024-0.003-0.047-0.007-0.07-0.01 -0.007 0.138-0.016 0.277-0.024 0.414C74.822 78.356 74.855 78.22 74.886 78.086zM74.791 78.489c-0.442 1.922-0.787 3.649-0.629 4.35C74.511 82.211 74.671 80.459 74.791 78.489zM74.161 82.839c-0.084 0.15-0.176 0.243-0.283 0.254 -0.106 0.01-0.216-0.064-0.327-0.195 -0.004 0.171-0.042 0.297-0.133 0.356 -0.09 0.059-0.221 0.045-0.38-0.021 0.076 0.155 0.101 0.285 0.049 0.378 -0.053 0.094-0.176 0.142-0.345 0.158 0.137 0.101 0.22 0.204 0.217 0.312 -0.002 0.107-0.089 0.207-0.231 0.302 0.169 0.024 0.29 0.079 0.337 0.174 0.048 0.096 0.018 0.225-0.064 0.375 0.161-0.057 0.292-0.065 0.379-0.002 0.087 0.063 0.12 0.19 0.116 0.363 0.117-0.125 0.229-0.196 0.337-0.179 0.105 0.014 0.194 0.113 0.27 0.268 0.045-0.167 0.113-0.279 0.216-0.315 0.101-0.036 0.225 0.01 0.363 0.111 -0.036-0.167-0.029-0.299 0.044-0.378 0.073-0.079 0.205-0.096 0.376-0.072 -0.111-0.132-0.168-0.251-0.138-0.355 0.028-0.104 0.136-0.18 0.299-0.237 -0.16-0.064-0.263-0.145-0.288-0.25 -0.023-0.105 0.037-0.223 0.154-0.349 -0.172 0.016-0.301-0.006-0.37-0.088 -0.07-0.082-0.072-0.214-0.028-0.379 -0.142 0.094-0.268 0.134-0.367 0.093C74.261 83.122 74.199 83.007 74.161 82.839zM74.729 83.07c0.601-0.394 1.557-1.871 2.578-3.558C76.022 81.007 74.916 82.375 74.729 83.07zM77.307 79.511c0.089-0.102 0.18-0.206 0.268-0.311 -0.019-0.013-0.036-0.028-0.055-0.042C77.449 79.277 77.378 79.396 77.307 79.511zM75.127 83.538c0.715-0.07 2.25-0.934 3.937-1.953C77.231 82.312 75.614 83.01 75.127 83.538zM79.063 81.584c0.117-0.046 0.235-0.092 0.354-0.138 -0.01-0.021-0.021-0.04-0.028-0.059C79.281 81.453 79.173 81.52 79.063 81.584zM75.259 84.137c0.666 0.27 2.426 0.218 4.395 0.101C77.693 84.03 75.938 83.896 75.259 84.137zM79.654 84.237c0.112 0.013 0.226 0.025 0.339 0.037 0-0.02 0.001-0.039 0.002-0.058C79.881 84.223 79.766 84.23 79.654 84.237zM75.1 84.729c0.462 0.551 2.046 1.321 3.842 2.129C77.303 85.763 75.811 84.831 75.1 84.729zM78.941 86.858c0.083 0.057 0.167 0.114 0.25 0.168 0.009-0.015 0.017-0.03 0.025-0.045C79.126 86.942 79.032 86.9 78.941 86.858zM74.68 85.179c0.156 0.701 1.2 2.12 2.414 3.674C76.151 87.119 75.264 85.599 74.68 85.179zM77.094 88.85c0.042 0.075 0.083 0.153 0.125 0.229 0.012-0.009 0.024-0.016 0.037-0.024C77.202 88.987 77.147 88.917 77.094 88.85zM74.103 85.383c-0.188 0.693 0.076 2.433 0.43 4.373C74.502 87.784 74.424 86.026 74.103 85.383zM74.532 89.756c0.001 0.078 0.003 0.158 0.003 0.238 0.014-0.002 0.027-0.004 0.041-0.004C74.562 89.913 74.547 89.833 74.532 89.756zM73.496 85.294c-0.49 0.528-1.064 2.189-1.652 4.072C72.733 87.607 73.481 86.013 73.496 85.294zM71.843 89.366c-0.035 0.068-0.07 0.138-0.104 0.208 0.012 0.006 0.023 0.009 0.036 0.015C71.797 89.516 71.821 89.439 71.843 89.366zM73 84.934c-0.68 0.239-1.962 1.446-3.357 2.838C71.25 86.628 72.652 85.563 73 84.934zM69.644 87.772c-0.067 0.047-0.137 0.098-0.205 0.145 0.01 0.011 0.02 0.02 0.029 0.032C69.525 87.89 69.585 87.832 69.644 87.772zM72.728 84.385c-0.713-0.104-2.407 0.368-4.291 0.952C70.392 85.071 72.125 84.781 72.728 84.385zM68.437 85.339c-0.092 0.013-0.187 0.024-0.283 0.039 0.003 0.015 0.008 0.03 0.013 0.044C68.258 85.396 68.348 85.366 68.437 85.339zM72.741 83.772c-0.582-0.423-2.303-0.792-4.242-1.149C70.353 83.294 72.025 83.843 72.741 83.772zM68.499 82.623c-0.101-0.037-0.205-0.075-0.305-0.112 -0.005 0.019-0.011 0.037-0.015 0.054C68.288 82.584 68.395 82.604 68.499 82.623zM73.038 83.235c-0.318-0.643-1.668-1.769-3.219-2.986C71.147 81.704 72.372 82.968 73.038 83.235zM69.818 80.25c-0.083-0.091-0.167-0.183-0.251-0.275 -0.014 0.016-0.029 0.031-0.042 0.046C69.624 80.097 69.723 80.173 69.818 80.25zM73.551 82.899c0.017-0.718-0.656-2.344-1.464-4.142C72.587 80.663 73.085 82.35 73.551 82.899zM72.087 78.757c-0.034-0.128-0.067-0.259-0.101-0.389 -0.021 0.007-0.043 0.015-0.063 0.023C71.977 78.513 72.033 78.636 72.087 78.757z" fill="url(#SvgjsRadialGradient35547)" opacity="0.4"></path><path id="SvgjsPath35550" d="M76.354 84c0 1.3-1.053 2.353-2.353 2.353 -1.299 0-2.354-1.053-2.354-2.353 0-1.299 1.055-2.354 2.354-2.354C75.301 81.646 76.354 82.7 76.354 84z" fill="#000000" stroke-width="none" opacity="1" stroke="none"></path><path id="SvgjsPath35551" d="M76.354 84c0 1.3-1.053 2.353-2.353 2.353 -1.299 0-2.354-1.053-2.354-2.353 0-1.299 1.055-2.354 2.354-2.354C75.301 81.646 76.354 82.7 76.354 84z" fill="#000000" stroke-width="none" opacity="0.9"></path><path id="SvgjsPath35552" d="M70.717 86.748c0.449-0.302 1.059-0.18 1.36 0.268 0.301 0.449 0.182 1.059-0.268 1.36 -0.45 0.303-1.059 0.183-1.36-0.267C70.148 87.66 70.268 87.049 70.717 86.748L70.717 86.748z" fill="url(#SvgjsLinearGradient35553)" opacity="0.5"></path><path id="SvgjsPath35556" d="M75.86 83.672c-0.251 0.374-0.969 0.331-1.606-0.096 -0.638-0.427-0.95-1.078-0.7-1.451l0-0.001c0.25-0.374 0.969-0.331 1.605 0.097C75.798 82.647 76.11 83.297 75.86 83.672 75.86 83.672 75.86 83.672 75.86 83.672z" fill="url(#SvgjsLinearGradient35557)" opacity="0.5"></path><path id="SvgjsPath35560" d="M78.716 82.673c-0.568 0.873-2.036 0.925-3.275 0.117 -1.24-0.808-1.784-2.17-1.215-3.043 0.568-0.872 2.036-0.924 3.275-0.117C78.74 80.439 79.284 81.802 78.716 82.673L78.716 82.673z" fill="url(#SvgjsLinearGradient35561)" opacity="0.75"></path></g></g></g><g id="svga-group-eyesfront-left"><path id="SvgjsPath35430" d="M53.729 84.098c-0.382 3.304 9.854 22.004 20.071 22.004s19.5-5.292 19.5-22.003c0-17.789-9.283-22.001-19.5-22.001S55.626 67.704 53.729 84.098zM60.8 85.053l-0.1-4.149c1.328-3.949 19.541-4.352 25.9 1.784 1.396 3.231-0.409 5.477-3.529 6.438 -3.293-0.784-4.969 1.059-9.809 1.166 -8.057 0.177-9.938-0.618-11.199-2.638C61.54 86.816 61.04 85.726 60.8 85.053z" fill="#c67d5e" stroke-width="none" opacity="1" stroke="none"></path><path id="SvgjsPath35431" d="M59.698 82.412c0.023 7.534 7.646 13.604 17.038 13.566 9.389-0.043 16.985-6.179 16.961-13.713 -0.023-7.533-7.647-13.605-17.04-13.566C67.265 68.743 59.673 74.878 59.698 82.412zM60.8 85.053l-0.1-4.149c1.328-3.949 19.541-4.352 25.9 1.784 1.396 3.231-0.409 5.477-3.529 6.438 -3.293-0.784-4.969 1.059-9.809 1.166 -8.057 0.177-9.938-0.618-11.199-2.638C61.54 86.816 61.04 85.726 60.8 85.053z" fill="url(#SvgjsRadialGradient35432)" opacity="1"></path><path id="SvgjsPath35436" d="M62.063 87.654c-0.523-0.837-1.023-1.928-1.264-2.601l-0.1-4.149c1.328-3.949 19.541-4.352 25.9 1.784 1.396 3.231-0.409 5.477-3.529 6.438 -3.293-0.784-4.969 1.059-9.809 1.166C65.206 90.469 63.324 89.673 62.063 87.654z" fill="url(#SvgjsRadialGradient35437)" opacity="1"></path><path id="SvgjsPath35440" d="M89.465 81.193c-9.617-5.761-16.701-6.128-28.117-5.394C70.877 74.298 81.852 75.387 89.465 81.193z" fill="#98401b" stroke-width="none" opacity="1" stroke="none"></path><path id="SvgjsPath35441" d="M88.23 85.283c-3.24-8.315-25.943-8.364-27.431-4.181v3.895c-1.021-1.539-1.047-1.633-1.483-3.404l-2.195 0.746c0 0 2.746-3.873 5.299-4.381C84.606 73.539 88.04 83.949 88.23 85.283zM84.743 89.42c-4.625-1.98-5.94 0.378-11.563 0.495 -8.004 0.168-9.567-0.766-11.125-2.476 0.813 2.091 1.375 3.085 10.875 3.027C78.306 90.433 81.243 88.212 84.743 89.42z" fill="#030611" stroke-width="none" opacity="1" stroke="none"></path></g></g></g><g id="svga-group-eyes-right-move" transform="matrix(1,0,0,1,0,0)"><g id="svga-group-eyes-right" transform="matrix(1,0,0,1,0,0)"><g id="svga-group-eyesback-right"><path id="SvgjsPath35413" d="M116.529 89.125c3.293-0.784 4.969 1.059 9.809 1.166 8.057 0.177 9.938-0.618 11.199-2.638 0.523-0.837 1.023-1.928 1.264-2.601l0.1-4.149c-1.328-3.949-19.541-4.352-25.9 1.784 -0.287 0.666-0.433 1.287-0.465 1.867 0.19 0.958 0.512 1.878 0.947 2.749C114.189 88.113 115.245 88.729 116.529 89.125z" fill="url(#SvgjsRadialGradient35414)" opacity="1"></path></g><g id="svga-group-eyesiriswrapper-right" transform="matrix(1,0,0,1,-0.25,0.25)"><g id="svga-group-eyesiriscontrol-right" transform="matrix(1,0,0,1,0,0)"><g id="svga-group-eyesiris-right" transform="matrix(1,0,0,1,0,0)"><path id="SvgjsPath35564" d="M132 84c0 3.313-2.687 6-5.999 6 -3.313 0-6.001-2.687-6.001-6l0 0c0-3.314 2.688-6 6.001-6C129.313 77.999 132 80.686 132 84L132 84z" fill="#000000" stroke-width="none" opacity="1" stroke="none"></path><path id="SvgjsPath35565" d="M125.328 78.066c-0.023 0.003-0.047 0.006-0.071 0.009 0.029 0.135 0.058 0.271 0.085 0.406C125.336 78.344 125.333 78.204 125.328 78.066zM125.341 78.48c0.069 1.972 0.185 3.729 0.518 4.364C126.033 82.148 125.735 80.414 125.341 78.48zM125.858 82.845c-0.042 0.167-0.108 0.281-0.207 0.319 -0.101 0.038-0.226-0.006-0.367-0.103 0.04 0.167 0.036 0.297-0.036 0.378 -0.072 0.081-0.201 0.101-0.372 0.078 0.112 0.13 0.171 0.249 0.146 0.353 -0.028 0.104-0.134 0.182-0.293 0.242 0.158 0.063 0.265 0.141 0.29 0.245 0.025 0.104-0.032 0.223-0.145 0.352 0.17-0.021 0.3 0.001 0.37 0.082 0.071 0.081 0.075 0.212 0.035 0.379 0.141-0.097 0.266-0.139 0.365-0.1 0.102 0.038 0.166 0.152 0.206 0.32 0.08-0.152 0.172-0.249 0.279-0.26 0.105-0.014 0.217 0.059 0.329 0.188 0.002-0.172 0.037-0.299 0.128-0.36 0.087-0.061 0.219-0.049 0.379 0.013 -0.078-0.152-0.104-0.281-0.056-0.377 0.051-0.095 0.174-0.146 0.345-0.166 -0.141-0.099-0.228-0.2-0.225-0.308 -0.001-0.108 0.084-0.209 0.227-0.306 -0.171-0.021-0.291-0.072-0.342-0.167 -0.05-0.095-0.022-0.225 0.057-0.377 -0.161 0.06-0.291 0.072-0.38 0.011s-0.124-0.188-0.125-0.36c-0.111 0.128-0.224 0.199-0.33 0.185C126.029 83.092 125.938 82.998 125.858 82.845zM126.466 82.92c0.479-0.535 1.021-2.209 1.569-4.104C127.182 80.593 126.468 82.202 126.466 82.92zM128.035 78.816c0.06-0.122 0.121-0.246 0.179-0.37 -0.021-0.007-0.042-0.017-0.063-0.026C128.112 78.553 128.074 78.686 128.035 78.816zM126.972 83.27c0.673-0.252 1.932-1.483 3.298-2.905C128.688 81.541 127.307 82.634 126.972 83.27zM130.27 80.365c0.1-0.075 0.202-0.15 0.305-0.225 -0.015-0.018-0.03-0.033-0.042-0.049C130.445 80.181 130.358 80.274 130.27 80.365zM127.255 83.814c0.713 0.088 2.399-0.417 4.271-1.041C129.578 83.081 127.848 83.406 127.255 83.814zM131.526 82.774c0.11-0.016 0.225-0.034 0.337-0.052 -0.005-0.019-0.009-0.038-0.014-0.057C131.742 82.701 131.632 82.738 131.526 82.774zM127.253 84.427c0.591 0.412 2.318 0.747 4.263 1.063C129.65 84.857 127.967 84.342 127.253 84.427zM131.516 85.49c0.095 0.033 0.19 0.067 0.285 0.098 0.005-0.017 0.009-0.033 0.013-0.05C131.716 85.523 131.614 85.507 131.516 85.49zM126.965 84.97c0.332 0.637 1.708 1.738 3.282 2.924C128.889 86.464 127.638 85.226 126.965 84.97zM130.248 87.892c0.059 0.062 0.119 0.126 0.178 0.189 0.01-0.012 0.02-0.021 0.031-0.032C130.387 87.997 130.315 87.944 130.248 87.892zM126.461 85.317c-0.003 0.719 0.702 2.331 1.547 4.113C127.468 87.533 126.937 85.855 126.461 85.317zM128.008 89.431c0.021 0.075 0.043 0.152 0.063 0.229 0.015-0.006 0.026-0.01 0.039-0.014C128.076 89.574 128.041 89.5 128.008 89.431zM125.851 85.389c-0.336 0.637-0.461 2.39-0.542 4.361C125.713 87.82 126.022 86.087 125.851 85.389zM125.309 89.75c-0.017 0.075-0.031 0.151-0.047 0.228 0.014 0.003 0.024 0.003 0.039 0.005C125.303 89.906 125.307 89.826 125.309 89.75zM125.279 85.169c-0.596 0.407-1.521 1.904-2.508 3.61C124.026 87.259 125.105 85.867 125.279 85.169zM122.771 88.779c-0.052 0.063-0.107 0.13-0.161 0.193 0.013 0.008 0.024 0.014 0.037 0.024C122.688 88.924 122.731 88.851 122.771 88.779zM124.874 84.71c-0.716 0.083-2.23 0.978-3.897 2.029C122.795 85.977 124.395 85.248 124.874 84.71zM120.977 86.741c-0.087 0.036-0.175 0.072-0.263 0.11 0.006 0.013 0.014 0.027 0.023 0.04C120.817 86.842 120.897 86.791 120.977 86.741zM124.729 84.113c-0.672-0.257-2.43-0.168-4.396-0.011C122.298 84.27 124.055 84.367 124.729 84.113zM120.333 84.102c-0.106-0.01-0.217-0.02-0.322-0.029 -0.001 0.019-0.003 0.038-0.001 0.056C120.119 84.119 120.228 84.11 120.333 84.102zM124.876 83.519c-0.474-0.539-2.069-1.277-3.882-2.051C122.653 82.528 124.163 83.432 124.876 83.519zM120.994 81.468c-0.104-0.067-0.21-0.134-0.315-0.201 -0.009 0.019-0.019 0.038-0.028 0.055C120.766 81.371 120.883 81.419 120.994 81.468zM125.284 83.061c-0.169-0.698-1.241-2.094-2.485-3.623C123.775 81.15 124.692 82.651 125.284 83.061zM122.799 79.438c-0.067-0.115-0.133-0.232-0.198-0.349 -0.019 0.013-0.039 0.026-0.057 0.039C122.629 79.231 122.716 79.335 122.799 79.438z" fill="url(#SvgjsRadialGradient35566)" opacity="0.7"></path><path id="SvgjsPath35569" d="M126.886 78.086c-0.024-0.003-0.047-0.007-0.07-0.01 -0.008 0.138-0.016 0.277-0.024 0.414C126.821 78.356 126.854 78.22 126.886 78.086zM126.791 78.489c-0.443 1.922-0.787 3.649-0.63 4.35C126.511 82.211 126.671 80.459 126.791 78.489zM126.161 82.839c-0.084 0.15-0.177 0.243-0.283 0.254 -0.106 0.01-0.216-0.064-0.327-0.195 -0.004 0.171-0.042 0.297-0.133 0.356 -0.09 0.059-0.221 0.045-0.38-0.021 0.075 0.155 0.101 0.285 0.049 0.378 -0.054 0.094-0.176 0.142-0.346 0.158 0.138 0.101 0.22 0.204 0.217 0.312 -0.002 0.107-0.089 0.207-0.23 0.302 0.17 0.024 0.289 0.079 0.337 0.174 0.048 0.096 0.018 0.225-0.064 0.375 0.162-0.057 0.293-0.065 0.38-0.002 0.087 0.063 0.12 0.19 0.115 0.363 0.117-0.125 0.229-0.196 0.337-0.179 0.105 0.014 0.194 0.113 0.27 0.268 0.046-0.167 0.113-0.279 0.216-0.315 0.101-0.036 0.226 0.01 0.363 0.111 -0.035-0.167-0.028-0.299 0.045-0.378 0.072-0.079 0.204-0.096 0.375-0.072 -0.11-0.132-0.168-0.251-0.138-0.355 0.027-0.104 0.136-0.18 0.299-0.237 -0.159-0.064-0.263-0.145-0.288-0.25 -0.022-0.105 0.038-0.223 0.154-0.349 -0.172 0.016-0.302-0.006-0.37-0.088 -0.07-0.082-0.072-0.214-0.027-0.379 -0.143 0.094-0.269 0.134-0.368 0.093C126.262 83.122 126.198 83.007 126.161 82.839zM126.729 83.07c0.601-0.394 1.557-1.871 2.578-3.558C128.022 81.007 126.916 82.375 126.729 83.07zM129.307 79.511c0.089-0.102 0.18-0.206 0.269-0.311 -0.02-0.013-0.037-0.028-0.056-0.042C129.449 79.277 129.378 79.396 129.307 79.511zM127.127 83.538c0.715-0.07 2.249-0.934 3.937-1.953C129.231 82.312 127.614 83.01 127.127 83.538zM131.063 81.584c0.116-0.046 0.234-0.092 0.354-0.138 -0.01-0.021-0.021-0.04-0.028-0.059C131.281 81.453 131.173 81.52 131.063 81.584zM127.259 84.137c0.666 0.27 2.426 0.218 4.396 0.101C129.692 84.03 127.938 83.896 127.259 84.137zM131.654 84.237c0.111 0.013 0.226 0.025 0.339 0.037 0.001-0.02 0.001-0.039 0.002-0.058C131.882 84.223 131.766 84.23 131.654 84.237zM127.1 84.729c0.463 0.551 2.046 1.321 3.842 2.129C129.303 85.763 127.811 84.831 127.1 84.729zM130.941 86.858c0.082 0.057 0.167 0.114 0.25 0.168 0.009-0.015 0.018-0.03 0.024-0.045C131.126 86.942 131.032 86.9 130.941 86.858zM126.681 85.179c0.155 0.701 1.199 2.12 2.413 3.674C128.151 87.119 127.265 85.599 126.681 85.179zM129.095 88.85c0.041 0.075 0.082 0.153 0.124 0.229 0.012-0.009 0.023-0.016 0.037-0.024C129.202 88.987 129.146 88.917 129.095 88.85zM126.103 85.383c-0.188 0.693 0.076 2.433 0.43 4.373C126.502 87.784 126.424 86.026 126.103 85.383zM126.532 89.756c0.001 0.078 0.003 0.158 0.003 0.238 0.015-0.002 0.026-0.004 0.04-0.004C126.562 89.913 126.547 89.833 126.532 89.756zM125.495 85.294c-0.489 0.528-1.064 2.189-1.652 4.072C124.733 87.607 125.48 86.013 125.495 85.294zM123.843 89.366c-0.035 0.068-0.069 0.138-0.104 0.208 0.012 0.006 0.022 0.009 0.035 0.015C123.797 89.516 123.821 89.439 123.843 89.366zM125 84.934c-0.68 0.239-1.961 1.446-3.356 2.838C123.25 86.628 124.652 85.563 125 84.934zM121.644 87.772c-0.067 0.047-0.138 0.098-0.205 0.145 0.01 0.011 0.02 0.02 0.029 0.032C121.525 87.89 121.586 87.832 121.644 87.772zM124.728 84.385c-0.713-0.104-2.406 0.368-4.29 0.952C122.392 85.071 124.126 84.781 124.728 84.385zM120.438 85.339c-0.093 0.013-0.188 0.024-0.283 0.039 0.004 0.015 0.008 0.03 0.013 0.044C120.258 85.396 120.348 85.366 120.438 85.339zM124.741 83.772c-0.582-0.423-2.303-0.792-4.242-1.149C122.353 83.294 124.025 83.843 124.741 83.772zM120.499 82.623c-0.101-0.037-0.205-0.075-0.305-0.112 -0.006 0.019-0.011 0.037-0.015 0.054C120.287 82.584 120.395 82.604 120.499 82.623zM125.038 83.235c-0.318-0.643-1.669-1.769-3.22-2.986C123.147 81.704 124.372 82.968 125.038 83.235zM121.818 80.25c-0.083-0.091-0.167-0.183-0.251-0.275 -0.015 0.016-0.028 0.031-0.043 0.046C121.623 80.097 121.724 80.173 121.818 80.25zM125.551 82.899c0.017-0.718-0.656-2.344-1.464-4.142C124.588 80.663 125.085 82.35 125.551 82.899zM124.087 78.757c-0.034-0.128-0.067-0.259-0.102-0.389 -0.021 0.007-0.043 0.015-0.063 0.023C123.977 78.513 124.033 78.636 124.087 78.757z" fill="url(#SvgjsRadialGradient35570)" opacity="0.4"></path><path id="SvgjsPath35573" d="M128.354 84c0 1.3-1.054 2.353-2.353 2.353 -1.3 0-2.354-1.053-2.354-2.353 0-1.299 1.055-2.354 2.354-2.354C127.302 81.646 128.354 82.7 128.354 84z" fill="#000000" stroke-width="none" opacity="1" stroke="none"></path><path id="SvgjsPath35574" d="M128.354 84c0 1.3-1.054 2.353-2.353 2.353 -1.3 0-2.354-1.053-2.354-2.353 0-1.299 1.055-2.354 2.354-2.354C127.302 81.646 128.354 82.7 128.354 84z" fill="#000000" stroke-width="none" opacity="0.9"></path><path id="SvgjsPath35575" d="M122.718 86.748c0.448-0.302 1.059-0.18 1.359 0.268 0.302 0.449 0.183 1.059-0.268 1.36 -0.45 0.303-1.059 0.183-1.359-0.267C122.148 87.66 122.268 87.049 122.718 86.748L122.718 86.748z" fill="url(#SvgjsLinearGradient35576)" opacity="0.5"></path><path id="SvgjsPath35579" d="M127.859 83.672c-0.251 0.374-0.969 0.331-1.605-0.096 -0.638-0.427-0.95-1.078-0.7-1.451l0.001-0.001c0.25-0.374 0.969-0.331 1.605 0.097C127.798 82.647 128.11 83.297 127.859 83.672 127.859 83.672 127.859 83.672 127.859 83.672z" fill="url(#SvgjsLinearGradient35580)" opacity="0.5"></path><path id="SvgjsPath35583" d="M130.717 82.673c-0.569 0.873-2.036 0.925-3.276 0.117 -1.239-0.808-1.784-2.17-1.215-3.043 0.568-0.872 2.035-0.924 3.275-0.117C130.74 80.439 131.284 81.802 130.717 82.673L130.717 82.673z" fill="url(#SvgjsLinearGradient35584)" opacity="0.75"></path></g></g></g><g id="svga-group-eyesfront-right"><path id="SvgjsPath35451" d="M125.801 62.098c-10.217 0-19.5 4.212-19.5 22.001 0 16.711 9.283 22.003 19.5 22.003s19.891-18.032 20.07-22.004C146.617 67.611 136.018 62.098 125.801 62.098zM137.537 87.654c-1.261 2.02-3.143 2.815-11.199 2.638 -4.84-0.107-6.516-1.95-9.809-1.166 -3.12-0.961-4.925-3.207-3.529-6.438 6.359-6.136 24.572-5.733 25.9-1.784l-0.1 4.149C138.561 85.726 138.061 86.816 137.537 87.654z" fill="#c67d5e" stroke-width="none" opacity="1" stroke="none"></path><path id="SvgjsPath35452" d="M122.943 68.699c-9.393-0.04-17.016 6.033-17.039 13.566 -0.025 7.535 7.572 13.67 16.961 13.713 9.391 0.037 17.014-6.033 17.037-13.566C139.928 74.878 132.336 68.743 122.943 68.699zM137.537 87.654c-1.261 2.02-3.143 2.815-11.199 2.638 -4.84-0.107-6.516-1.95-9.809-1.166 -3.12-0.961-4.925-3.207-3.529-6.438 6.359-6.136 24.572-5.733 25.9-1.784l-0.1 4.149C138.561 85.726 138.061 86.816 137.537 87.654z" fill="url(#SvgjsRadialGradient35453)" opacity="1"></path><path id="SvgjsPath35457" d="M137.537 87.654c0.523-0.837 1.023-1.928 1.264-2.601l0.1-4.149c-1.328-3.949-19.541-4.352-25.9 1.784 -1.396 3.231 0.409 5.477 3.529 6.438 3.293-0.784 4.969 1.059 9.809 1.166C134.395 90.469 136.276 89.673 137.537 87.654z" fill="url(#SvgjsRadialGradient35458)" opacity="1"></path><path id="SvgjsPath35461" d="M110.136 81.193c9.617-5.761 16.701-6.128 28.117-5.394C128.724 74.298 117.749 75.387 110.136 81.193z" fill="#98401b" stroke-width="none" opacity="1" stroke="none"></path><path id="SvgjsPath35462" d="M137.181 77.957c2.553 0.508 5.299 4.381 5.299 4.381l-2.195-0.746c-0.437 1.771-0.463 1.865-1.483 3.404v-3.895c-1.487-4.183-24.19-4.134-27.431 4.181C111.561 83.949 114.994 73.539 137.181 77.957zM126.67 90.467c9.5 0.058 10.063-0.937 10.875-3.027 -1.558 1.71-3.121 2.644-11.125 2.476 -5.622-0.117-6.938-2.476-11.563-0.495C118.357 88.212 121.295 90.433 126.67 90.467z" fill="#030611" stroke-width="none" opacity="1" stroke="none"></path></g></g></g><g id="svga-group-facehighlight-single"><path id="SvgjsPath34729" d="M141 113.974c0.035 22.622-18.292 40.994-40.938 41.025 -22.642 0.037-41.028-18.273-41.063-40.9 -0.035-22.62 18.292-41.064 40.937-41.1C122.579 72.964 140.967 91.349 141 113.974z" fill="url(#SvgjsRadialGradient34730)" opacity="1"></path><path id="SvgjsPath34733" d="M137.5 53.999c0 20.711-16.789 37.5-37.499 37.5 -20.711 0-37.501-16.789-37.501-37.5s16.79-37.5 37.501-37.5C120.711 16.499 137.5 33.288 137.5 53.999z" fill="url(#SvgjsRadialGradient34734)" opacity="1"></path></g><g id="svga-group-eyebrows-left-move" transform="matrix(1,0,0,1,0,0)"><g id="svga-group-eyebrows-left-rotate" transform="matrix(1,0,0,1,0,0)"><g id="svga-group-eyebrows-left" transform="matrix(1,0,0,1,0,0)"><path id="SvgjsPath34971" d="M54.205 76c21.295-17.8 43.536-4.503 36.719-1.268C88.252 76 78.133 64.999 54.205 76z" fill="#73625b" stroke-width="none" opacity="1" stroke="none"></path></g></g></g><g id="svga-group-eyebrows-right-move" transform="matrix(1,0,0,1,0,0)"><g id="svga-group-eyebrows-right-rotate" transform="matrix(1,0,0,1,0,0)"><g id="svga-group-eyebrows-right" transform="matrix(1,0,0,1,0,0)"><path id="SvgjsPath34972" d="M145.795 76c-21.295-17.8-43.536-4.503-36.719-1.268C111.748 76 121.867 64.999 145.795 76z" fill="#73625b" stroke-width="none" opacity="1" stroke="none"></path></g></g></g><g id="svga-group-nose-single-move" transform="matrix(1,0,0,1,0,0)"><g id="svga-group-nose-single" transform="matrix(1,0,0,1,0,0)"><path id="SvgjsPath34983" d="M94.796 89.999c0 0 0.662 2.241 0.681 2.916 0.032 1.147-0.103 2.045-0.191 2.927 -0.58 5.758-3.586 14.09-3.425 18.067 0.07 1.712 1.128 4.21 1.128 4.21s-2.542-0.701-3.101-5.553c-0.23-2.002 1.721-5.877 2.403-7.755 0.647-1.785 1.91-7.571 2.353-9.437 0.187-0.781 0.521-1.724 0.516-2.533C95.156 92.121 94.796 89.999 94.796 89.999zM94.506 118.602c0 0 0.301 2.663 3.245 3.315 2.763 0.612 4.313-2.404 4.313-2.404s-2.296 1.547-4.06 0.991C97.074 120.213 94.506 118.602 94.506 118.602zM105.098 112.867c-0.02 0.639-0.199 2.485-0.199 2.485s0.906-1.484 0.964-2.07c0.104-1.052-1.065-4.084-1.065-4.084S105.125 111.94 105.098 112.867z" fill="#b76744" stroke-width="none" opacity="1" stroke="none"></path><path id="SvgjsPath34984" d="M92.478 108.461c-1.227 4.164-2.094 8.571 1.484 10.533 0.468 0.257 0.969 0.446 1.479 0.554 0.277 0.058 0.48 0.31 0.723 0.474 0.558 0.384 1.478 0.438 2.117 0.555 2.458 0.455 4.941-0.609 5.549-3.155 -1.53 2.193-2.884 2.799-4.966 2.624 -2.498-0.211-4.583-2.446-5.237-5.069 -0.39-1.56-0.542-3.127-0.425-4.754 0.108-1.396 0.488-2.781 0.708-4.164 0.413-2.495 1.411-7.713 1.404-10.318 -0.399 1.816-1.121 6.099-1.395 7.145 -0.204 0.778-0.637 2.358-0.813 3.146C92.967 106.66 92.656 107.853 92.478 108.461zM92.194 115.404c-0.163-1.227 0.045-2.518 0.295-3.708 0.088 2.364 0.71 5.117 2.126 6.864C93.392 118.038 92.402 116.956 92.194 115.404 92.048 114.307 92.446 117.29 92.194 115.404z" fill="#98401b" stroke-width="none" opacity="1" stroke="none"></path><path id="SvgjsPath34985" d="M95.565 113.18c0.158 0.764 0.032 1.453-0.282 1.542 -0.313 0.088-0.636-0.376-0.793-1.14 -0.158-0.763-0.09-1.535 0.222-1.623C95.026 111.87 95.407 112.417 95.565 113.18z" fill="#d5967b" stroke-width="none" opacity="1" stroke="none"></path></g></g><g id="svga-group-beardwrap" transform="matrix(1,0,0,1,0,0)"><g id="svga-group-beard-single-move" transform="matrix(1,0,0,1,0,0)"><g id="svga-group-beard-single" transform="matrix(1,0,0,1,0,0)"><path id="SvgjsPath35663" d="M71.7 128.57c0.26 1.18 0.08 1.62-0.33 2.5C71.68 129.72 71.69 129.7 71.7 128.57zM98.59 157.65c-0.02-1.21-0.44-1.85-1.56-2.22C97.93 156.04 98.36 156.59 98.59 157.65zM94.8 156.56c-0.05-1.04-0.28-1.67-1.1-2.33C94.26 155.02 94.5 155.56 94.8 156.56zM90.87 155.24c0.08 0.46 0.74 1.31 1.33 1.5C91.71 156.46 90.87 155.24 90.87 155.24zM87.2 153.57c0.08 0.24 0.68 1.88 0.83 1.67C88.04 155.24 87.08 153.22 87.2 153.57zM89.7 150.74c-0.25 1-0.3 1.59-0.17 2.67C89.63 152.79 89.71 151.23 89.7 150.74zM91.87 147.9c-0.09 0.77-0.1 1.57 0 2.33C91.96 149.57 91.98 148.8 91.87 147.9zM93.04 152.74c0.66-0.85 0.89-1.29 1.17-2.33C94 150.74 93.19 152.38 93.04 152.74zM96.7 150.4c-0.08 1.28 0.04 1.85 0.5 2.83C96.84 151.54 96.96 152.13 96.7 150.4zM95.2 148.9c0.42-0.82 0.57-1.29 0.67-2.17C95.69 147.17 95.3 148.49 95.2 148.9zM99.04 147.4c-0.07 0.62 0.05 1.77 0.67 1.67C99.24 149.15 99.1 147.86 99.04 147.4zM95.2 144.9c0.32-0.74 0.56-1.58 0.67-2.33C95.54 143.32 95.32 144.13 95.2 144.9zM88.2 146.74c-0.29 0.88-0.39 1.45-0.33 2.5C87.97 148.78 88.17 147.23 88.2 146.74zM85.37 153.07c0.51-1 0.7-1.62 0.83-2.67C85.97 150.96 85.52 152.4 85.37 153.07zM83.04 150.57c-0.54 0.6 0.17 1.67 0.17 1.67C83.19 151.52 82.81 151.17 83.04 150.57zM84.04 144.8c0-0.06-0.12 0.23 0.16 2.6 0.06-2.55-0.17-2.93-0.17-2.5C84.04 144.9 84.04 144.86 84.04 144.8zM80.2 146.9c0.08 1.47 0.03 2.06 0.33 3C80.43 147.77 80.47 147.9 80.2 146.9zM77.7 147.07c-0.18 0.83-0.21 1.34 0.33 2C77.67 148.33 77.7 147.92 77.7 147.07zM73.54 144.9c0.02-0.51-0.01-1.11-0.15-1.68C73.39 143.13 73.32 143.89 73.54 144.9zM75.26 145.49c0 0 0.61-2.92 0.61-2.92C75.45 143.28 75.26 145.49 75.26 145.49zM78.7 141.9c-0.55 0.52-0.86 1.66-0.83 2.33C77.98 143.79 78.41 142.34 78.7 141.9zM81.37 144.74c0.25-1.07 0.3-1.7 0.17-2.83C81.43 142.58 81.36 144.19 81.37 144.74zM81.2 136.24c-0.2 0.65-0.24 0.95-0.17 1.67C81.05 137.83 81.2 136.3 81.2 136.24zM78.54 138.9c0.46-0.63 0-2.33 0-2.33S78.67 138.6 78.54 138.9zM74.87 137.74c0.17 0.83 0.46 1.74 0.83 2.5C75.54 139.41 75.25 138.53 74.87 137.74zM71.54 137.74c-0.3 1.81-0.06 2.33 0.33 3.33C71.63 139.59 71.56 139.4 71.54 137.74zM69.04 135.74c-0.4 0.64-0.54 2.16 0.17 3C68.8 137.97 68.84 136.33 69.04 135.74zM69.87 130.57c0 0-0.5 0.94-0.5 2.33C69.55 132.11 69.75 131.2 69.87 130.57zM73.04 133.07c0 0-0.83 0.06-0.5 2.5C72.91 132.51 73.04 133.07 73.04 133.07zM77.2 134.07c0.27-0.84 0.45-1.75 0.5-2.67C77.42 132.26 77.26 133.17 77.2 134.07zM75.2 127.9c-0.46 1.05-0.54 1.45-0.5 2.5C74.7 130.4 75.2 127.9 75.2 127.9zM79.2 126.24c-0.67 0.58-0.88 2.11-0.83 3C78.83 126.52 79.2 126.24 79.2 126.24zM83.7 126.4c-0.8 0.64-1.12 1.1-1.33 2.33C82.76 127.78 82.85 127.44 83.7 126.4zM86.54 129.07c0.64-0.63 1.5-3.33 1.5-3.33C87.86 125.39 86.75 128.72 86.54 129.07zM91.54 125.74c-0.56 0.13-1.43 2.64-1.67 3.17C90.17 128.48 91.54 125.74 91.54 125.74zM94.7 125.57c-0.48 0.99-0.74 1.51-1 2.67C94.18 127.29 94.41 126.51 94.7 125.57zM98.7 125.07c-0.76 1.71-0.43 1.22-1.33 3C97.94 127.36 98.37 126.74 98.7 125.07zM128.3 128.57c-0.26 1.18-0.08 1.62 0.33 2.5C128.32 129.72 128.31 129.7 128.3 128.57zM103.46 155.24c-1.12 0.37-1.49 0.68-1.5 1.89C102.19 156.06 102.56 155.84 103.46 155.24zM106.32 154.71c-0.82 0.66-1.14 1.49-1.19 2.53C105.43 156.24 105.77 155.49 106.32 154.71zM107.8 156.74c0.59-0.19 1.26-1.04 1.33-1.5C109.13 155.24 108.29 156.46 107.8 156.74zM111.96 155.24c0.15 0.21 0.75-1.42 0.83-1.67C112.92 153.22 111.96 155.24 111.96 155.24zM110.46 153.4c0.13-1.08 0.08-1.67-0.17-2.67C110.29 151.23 110.37 152.79 110.46 153.4zM108.13 150.24c0.1-0.77 0.09-1.57 0-2.33C108.02 148.8 108.04 149.57 108.13 150.24zM105.8 150.4c0.28 1.04 0.51 1.49 1.17 2.33C106.81 152.38 106 150.74 105.8 150.4zM102.8 153.24c0.46-0.99 0.58-1.55 0.5-2.83C103.04 152.13 103.16 151.54 102.8 153.24zM104.13 146.74c0.1 0.88 0.24 1.35 0.67 2.17C104.7 148.49 104.31 147.17 104.13 146.74zM101.3 148.07c0.61 0.1 0.74-1.05 0.67-1.67C101.9 146.86 101.76 148.15 101.3 148.07zM104.13 142.57c0.11 0.75 0.35 1.59 0.67 2.33C104.68 144.13 104.46 143.32 104.13 142.57zM112.13 149.24c0.06-1.05-0.04-1.62-0.33-2.5C111.83 147.23 112.03 148.78 112.13 149.24zM113.8 150.4c0.13 1.04 0.33 1.67 0.83 2.67C114.48 152.4 114.03 150.96 113.8 150.4zM116.8 152.24c0 0 0.71-1.06 0.17-1.67C117.19 151.17 116.81 151.52 116.8 152.24zM115.96 144.9c0-0.43-0.22-0.05-0.17 2.5 0.28-2.37 0.16-2.66 0.16-2.6C115.96 144.86 115.96 144.9 115.96 144.9zM119.46 149.9c0.3-0.94 0.25-1.53 0.33-3C119.53 147.9 119.57 147.77 119.46 149.9zM121.96 149.07c0.54-0.66 0.51-1.17 0.33-2C122.3 147.92 122.33 148.33 121.96 149.07zM126.61 143.23c-0.14 0.57-0.17 1.17-0.15 1.68C126.68 143.89 126.61 143.13 126.61 143.23zM124.13 142.57c0 0 0.61 2.92 0.61 2.92S124.55 143.28 124.13 142.57zM122.13 144.24c0.03-0.67-0.29-1.81-0.83-2.33C121.59 142.34 122.02 143.79 122.13 144.24zM118.46 141.9c-0.14 1.13-0.09 1.76 0.17 2.83C118.64 144.19 118.57 142.58 118.46 141.9zM118.96 137.9c0.07-0.72 0.03-1.02-0.17-1.67C118.8 136.3 118.95 137.83 118.96 137.9zM121.46 136.57c0 0-0.46 1.7 0 2.33C121.33 138.6 121.46 136.57 121.46 136.57zM124.3 140.24c0.37-0.76 0.67-1.67 0.83-2.5C124.75 138.53 124.46 139.41 124.3 140.24zM128.13 141.07c0.4-1 0.64-1.53 0.33-3.33C128.44 139.4 128.37 139.59 128.13 141.07zM130.8 138.74c0.71-0.84 0.57-2.36 0.17-3C131.16 136.33 131.2 137.97 130.8 138.74zM130.63 132.9c0-1.4-0.5-2.33-0.5-2.33C130.25 131.2 130.45 132.11 130.63 132.9zM127.46 135.57c0.33-2.44-0.5-2.5-0.5-2.5S127.09 132.51 127.46 135.57zM122.3 131.4c0.05 0.91 0.23 1.83 0.5 2.67C122.74 133.17 122.58 132.26 122.3 131.4zM125.3 130.4c0.04-1.05-0.04-1.45-0.5-2.5C124.8 127.9 125.3 130.4 125.3 130.4zM121.63 129.24c0.05-0.89-0.17-2.42-0.83-3C120.8 126.24 121.17 126.52 121.63 129.24zM117.63 128.74c-0.21-1.24-0.53-1.7-1.33-2.33C117.15 127.44 117.24 127.78 117.63 128.74zM111.96 125.74c0 0 0.86 2.7 1.5 3.33C113.25 128.72 112.14 125.39 111.96 125.74zM110.13 128.9c-0.24-0.53-1.1-3.04-1.67-3.17C108.46 125.74 109.83 128.48 110.13 128.9zM106.3 128.24c-0.26-1.15-0.52-1.68-1-2.67C105.59 126.51 105.82 127.29 106.3 128.24zM102.63 128.07c-0.91-1.78-0.57-1.29-1.33-3C101.63 126.74 102.05 127.36 102.63 128.07zM100.51 151.66c-1.02 1.58-0.98 2.27-0.95 3.27C99.85 153.5 99.83 153.51 100.51 151.66zM97.93 142.95c0.51 1.42 0.57 1.57 0.82 2.59C98.72 144.45 98.5 143.87 97.93 142.95zM100.79 145.08c0.25-1.02 0.78-0.71 1.29-2.13C101.5 143.87 100.81 144 100.79 145.08z" fill="#73625b" stroke-width="none" opacity="1"></path></g></g></g><g id="svga-group-mustache-single-move" transform="matrix(1,0,0,1,0,0)"><g id="svga-group-mustache-single" transform="matrix(1,0,0,1,0,0)"><path id="SvgjsPath34745" d="M100,18.13L100,18.13L100,18.13L100,18.13z" fill="#73625b" stroke-width="none" opacity="1" stroke="none"></path></g></g><g id="svga-group-hair-front" transform="matrix(1,0,0,1,0,0)"><path id="SvgjsPath34997" d="M158.43 41.325C140-4.765 100 0.405 100 0.405s-40-5.169-58.43 40.92c-9.245 23.12 2.158 50.324 2.158 50.324h5.826c-5.094-21.752 0.796-17.662 1.176-21.722 0.118-1.255-0.3-3.367-0.421-4.622 -0.592-6.112 1.982-18.029 5.245-23.173 1.603-2.526 5.369-6.659 8.174-7.699 9.97-3.694 20.044 0.715 22.854 1.421 4.461 1.12 22.373 1.12 26.836 0 3.343-0.839 13.182-4.905 22.854-1.321 2.806 1.04 6.871 4.972 8.474 7.499 3.263 5.144 5.537 16.16 4.945 22.272 -0.121 1.255-0.539 4.367-0.422 5.623 0.107 1.147 2.617 3.689 2.898 4.807 1.16 4.612-1.722 16.915-1.722 16.915h5.825C156.271 91.649 167.676 64.445 158.43 41.325z" fill="#73625b" stroke-width="none" opacity="1" stroke="none"></path><path id="SvgjsPath34998" d="M154.938 31.163C136.178-3.114 101.979-0.631 100-0.455c-1.979-0.176-36.177-2.659-54.938 31.618C30.57 57.641 41.57 88.137 42.907 91.612c0.076 0.197 1.576 0.038 1.576 0.038 -0.006-0.015-0.104-0.392-0.166-0.55 -1.209-3.12-12.189-33.18 2.061-59.216C65.111-2.342 99.595 1.007 99.94 1.046L100 0.504l0.06 0.542c0.345-0.039 34.829-3.388 53.563 30.837 14.563 26.61 2.773 57.423 1.996 59.383 -0.021 0.055-0.107 0.375-0.111 0.383 0 0 1.506 0.169 1.575-0.011C158.374 88.294 169.467 57.709 154.938 31.163z" fill="#452c22" stroke-width="none" opacity="1" stroke="none"></path></g><g id="svga-group-glasses-single-move" transform="matrix(1,0,0,1,0,0)"><g id="svga-group-glasses-single" transform="matrix(1,0,0,1,0,0)"><path id="SvgjsPath35641" d="M148.02 85.54c-0.11 1.96-0.35 4.05-0.59 6.25 -1.04 9.74-5.26 12.49-24.57 11.1 -6.3-0.45-11.06-4.04-13.41-10.1 -0.99-2.55-1.87-5.52-2.37-8.48C116.7 77.81 139.4 77.62 148.02 85.54zM51.98 85.54c0.11 1.96 0.35 4.05 0.59 6.25 1.04 9.74 5.26 12.49 24.57 11.1 6.3-0.45 11.06-4.04 13.41-10.1 0.99-2.55 1.87-5.52 2.37-8.48C83.3 77.81 60.6 77.62 51.98 85.54z" fill="#ffffff" stroke-width="none" opacity="0.2"></path><path id="SvgjsPath35642" d="M148.02 85.54c-8.62-7.92-31.33-7.73-40.93-1.23 -0.36-2.11-0.52-4.22-0.36-6.16h0c0.66-7.81 13.45-6.88 20.98-7.17C146.33 70.26 148.56 76.34 148.02 85.54zM93.27 78.14L93.27 78.14c-0.66-7.81-13.45-6.88-20.99-7.17 -18.61-0.71-20.85 5.37-20.31 14.56 8.62-7.92 31.33-7.73 40.93-1.23C93.26 82.19 93.43 80.09 93.27 78.14z" fill="#ffffff" stroke-width="none" opacity="0.4"></path><path id="SvgjsPath35643" d="M149.91 75.08c-0.62-1.42-1.48-2.7-2.56-3.65 -2.47-2.16-7.08-2.46-11.39-2.71 -4.19-0.23-12.15-0.42-17.46-0.08 -13.8 0.9-13.57 7-13.57 7 -1.81 0-8.03 0-9.84 0 0 0 0.23-6.11-13.57-7 -5.32-0.34-13.27-0.16-17.46 0.08 -4.31 0.24-8.93 0.55-11.39 2.71 -1.09 0.95-1.94 2.22-2.56 3.65l-8.19-1.58v3.99c7.17 1.38 9.02 1.82 10.02 1.76 -0.25 3.01-0.36 8.35 0.29 12.59 1.54 10.07 5.78 12.78 24.94 11.4 6.36-0.46 11.35-4.23 13.72-10.33 1.86-4.8 3.14-9.09 2.81-14.28h12.64c-0.33 5.19 0.95 9.49 2.81 14.28 2.36 6.1 7.36 9.87 13.72 10.33 19.17 1.38 23.41-1.33 24.94-11.4 0.65-4.24 0.54-9.58 0.29-12.59 1 0.06 2.85-0.38 10.02-1.76V73.5L149.91 75.08zM90.07 92.61c-2.27 5.87-6.88 9.35-12.98 9.78 -19.08 1.37-22.61-1.33-24.04-10.68 -0.76-5.01-0.35-11.52-0.25-12.52 0.19-0.03 0.31-0.06 0.32-0.1 1.09-6.36 6.45-8.42 29.02-7.35 3.73 0.18 6.92 0.88 8.69 2.75 1.04 1.09 2.04 2.66 1.95 4.17l0.04 0C93.02 81.2 92.44 86.5 90.07 92.61zM146.94 91.72c-1.43 9.35-4.96 12.05-24.04 10.68 -6.1-0.44-10.71-3.92-12.98-9.78 -2.37-6.11-2.94-11.41-2.74-13.95l0.04 0c-0.09-1.5 0.91-3.07 1.95-4.17 1.77-1.87 4.96-2.57 8.69-2.75 22.57-1.06 27.92 0.99 29.02 7.35 0.01 0.04 0.13 0.08 0.32 0.1C147.29 80.2 147.71 86.71 146.94 91.72z" fill="#9b6db6" stroke-width="none" opacity="1"></path><path id="SvgjsPath35644" d="M104.94 75.34c0.17-1.26 1.63-5.92 13.54-6.69 5.32-0.34 13.27-0.16 17.46 0.08 4.31 0.24 8.93 0.55 11.39 2.71 1.09 0.95 1.94 2.22 2.56 3.65l0 0c-3.72-6.16-10.22-5.54-14.01-5.75 -2.3-0.13-6.21-0.27-10.28-0.27 -2.77 0-5.15 0.06-7.06 0.19C111.48 69.71 107.56 70.92 104.94 75.34zM95.06 75.34c-0.17-1.26-1.63-5.92-13.54-6.69 -5.32-0.34-13.27-0.16-17.46 0.08 -4.31 0.24-8.93 0.55-11.39 2.71 -1.09 0.95-1.94 2.22-2.56 3.65l0 0c3.72-6.16 10.22-5.54 14.01-5.75 2.3-0.13 6.21-0.27 10.28-0.27 2.77 0 5.15 0.06 7.06 0.19C88.52 69.71 92.44 70.92 95.06 75.34z" fill="#af8ac5" stroke-width="none" opacity="1"></path></g></g></g></g></g><rect id="svga-credit-rect" width="200" height="15" x="0" y="185" fill="#ecf0f1" opacity="0.5" style="display: none;"></rect><text id="svga-credit-text" font-family="Avenir Next, Roboto, Helvetica, Arial, sans-serif" font-size="10px" text-anchor="start" font-weight="400" size="10px" anchor="start" weight="400" fill="#333333" x="33.34375" y="182.609375" style="display: none;"><tspan id="SvgjsTspan34716" dy="13" x="33.34375">Created on AvatarMaker.com</tspan></text></g></svg>